<?xml version="1.0" standalone="no"?>
<!DOCTYPE svg PUBLIC "-//W3C//DTD SVG 20010904//EN"
 "http://www.w3.org/TR/2001/REC-SVG-20010904/DTD/svg10.dtd">
<svg version="1.0" xmlns="http://www.w3.org/2000/svg"
 width="1436.000000pt" height="1393.000000pt" viewBox="0 0 1436.000000 1393.000000"
 preserveAspectRatio="xMidYMid meet">
<metadata>
Created by potrace 1.11, written by Peter Selinger 2001-2013
</metadata>
<g transform="translate(0.000000,1393.000000) scale(0.100000,-0.100000)"
fill="#000000" stroke="none">
<path d="M6695 13914 c-648 -28 -798 -51 -1530 -228 -228 -55 -351 -91 -465
-134 -591 -226 -1123 -487 -1505 -738 -287 -188 -385 -262 -662 -495 -502
-420 -880 -830 -1235 -1334 -229 -327 -309 -448 -353 -535 -26 -52 -96 -185
-156 -295 -111 -205 -175 -349 -281 -630 -33 -88 -91 -236 -128 -330 -70 -172
-92 -248 -189 -665 -138 -595 -174 -922 -174 -1570 0 -666 38 -988 198 -1660
91 -384 96 -401 159 -554 32 -77 84 -210 116 -295 107 -287 190 -475 299 -676
60 -110 130 -243 156 -295 44 -87 124 -208 353 -535 355 -505 731 -911 1235
-1334 276 -233 375 -306 662 -495 377 -249 968 -536 1540 -749 151 -57 487
-143 940 -242 349 -76 729 -108 1265 -108 523 0 913 32 1245 103 191 41 491
111 690 161 258 64 767 275 1255 519 829 415 1660 1114 2262 1900 200 263 475
665 533 780 26 52 96 185 156 295 109 201 192 389 299 676 32 85 84 218 116
295 63 153 67 169 160 558 87 366 159 792 190 1136 24 258 24 776 0 1040 -30
338 -101 770 -181 1109 -94 399 -104 431 -175 606 -37 94 -95 242 -128 330
-106 281 -170 425 -281 630 -60 110 -130 243 -156 295 -58 115 -333 517 -533
780 -602 786 -1433 1485 -2262 1900 -493 247 -999 456 -1255 519 -720 178
-985 226 -1393 251 -181 11 -663 19 -787 14z m768 -199 c605 -54 979 -131
1602 -327 385 -121 956 -390 1355 -636 370 -228 526 -339 810 -576 304 -253
594 -536 791 -771 611 -732 1062 -1525 1307 -2300 246 -777 345 -1392 345
-2140 0 -745 -100 -1367 -345 -2140 -244 -769 -695 -1566 -1294 -2285 -176
-211 -550 -575 -834 -811 -258 -215 -445 -346 -823 -578 -365 -224 -947 -494
-1312 -609 -624 -197 -977 -269 -1610 -328 -248 -23 -782 -23 -1030 0 -544 51
-870 111 -1365 251 -424 120 -587 184 -1060 416 -732 359 -1295 763 -1861
1335 -241 245 -334 351 -525 604 -272 359 -482 689 -692 1090 -95 181 -317
716 -380 915 -246 776 -345 1395 -345 2140 0 748 99 1360 345 2140 64 202 286
735 384 922 267 508 553 935 923 1378 367 439 944 936 1471 1266 388 243 601
355 1114 580 303 134 908 307 1316 378 283 49 685 94 940 105 164 7 602 -4
773 -19z"/>
<path d="M6715 13594 c-363 -17 -972 -96 -1230 -160 -266 -66 -744 -216 -863
-271 -42 -19 -183 -82 -313 -138 -447 -196 -716 -347 -1144 -645 -202 -141
-338 -253 -615 -505 -388 -354 -754 -761 -957 -1065 -324 -487 -472 -758 -695
-1275 -278 -644 -416 -1209 -494 -2025 -23 -241 -23 -749 0 -995 35 -377 76
-636 160 -1017 71 -320 183 -655 348 -1038 199 -459 246 -551 491 -945 270
-433 503 -722 922 -1140 402 -403 648 -605 1085 -890 295 -192 579 -340 1065
-553 306 -134 680 -257 1000 -327 204 -44 757 -129 985 -151 243 -23 750 -23
995 0 231 22 773 106 985 152 460 101 873 254 1456 539 227 110 638 352 849
498 204 142 550 435 786 668 567 559 885 991 1277 1739 108 207 315 690 357
837 20 71 63 209 96 308 73 226 114 414 178 825 61 392 74 569 74 995 0 419
-13 602 -74 995 -60 395 -102 588 -175 819 -31 97 -76 239 -99 316 -48 157
-249 630 -352 825 -231 440 -486 850 -687 1104 -135 171 -522 589 -663 717
-503 455 -658 572 -1125 852 -311 187 -420 244 -693 362 -104 45 -242 106
-305 135 -183 83 -575 209 -915 294 -211 52 -585 107 -963 141 -172 15 -592
26 -747 19z m740 -130 c238 -23 786 -110 976 -154 246 -57 612 -172 934 -293
146 -55 635 -293 800 -390 66 -38 239 -150 385 -248 465 -313 954 -745 1271
-1124 434 -520 668 -875 935 -1420 146 -297 197 -427 350 -896 140 -427 185
-634 243 -1104 47 -376 54 -494 54 -820 0 -383 -17 -591 -94 -1105 -41 -274
-81 -437 -196 -795 -146 -456 -242 -694 -423 -1055 -331 -659 -1007 -1522
-1495 -1908 -66 -53 -181 -146 -255 -207 -342 -283 -704 -511 -1185 -745 -361
-177 -520 -239 -905 -354 -502 -151 -651 -183 -1075 -235 -377 -47 -494 -54
-820 -54 -334 0 -443 7 -845 58 -438 56 -477 65 -1053 232 -378 109 -527 168
-917 359 -508 249 -747 405 -1305 850 -333 265 -577 515 -921 944 -318 395
-528 728 -781 1235 -157 314 -223 486 -342 900 -140 485 -157 558 -210 901
-61 392 -74 569 -74 974 -1 407 13 595 73 980 54 350 83 476 219 935 126 428
171 543 344 890 257 516 470 854 752 1195 61 74 147 180 190 235 97 124 471
504 625 634 354 299 714 560 1035 748 182 107 659 337 845 408 261 99 619 209
890 274 158 38 710 128 930 152 289 31 747 33 1045 3z"/>
<path d="M6884 12928 c3 -134 9 -348 12 -475 l6 -233 95 0 95 0 -6 243 c-3
133 -9 347 -12 475 l-6 232 -95 0 -95 0 6 -242z"/>
<path d="M7590 13141 c-57 -9 -161 -67 -221 -125 -41 -38 -51 -56 -80 -147
-32 -97 -34 -113 -34 -240 l0 -136 42 -85 c50 -99 93 -140 207 -194 95 -45
187 -54 295 -30 118 27 185 69 269 167 43 51 64 107 87 226 19 100 19 133 -4
218 -35 136 -99 221 -226 300 -72 45 -72 45 -181 50 -60 2 -129 0 -154 -4z
m246 -187 c30 -18 60 -48 79 -78 29 -47 30 -54 33 -186 4 -135 4 -137 -26
-197 -67 -131 -192 -184 -312 -131 -30 14 -70 37 -88 53 -56 47 -65 74 -65
220 l-1 130 44 84 c25 46 55 90 68 99 78 51 191 54 268 6z"/>
<path d="M6180 13127 c-54 -16 -140 -70 -195 -123 -30 -29 -50 -64 -75 -129
-33 -86 -35 -96 -35 -215 0 -144 11 -186 78 -298 46 -77 77 -103 177 -154 60
-30 72 -33 160 -32 84 0 104 4 175 33 44 18 94 41 110 51 48 29 111 135 126
208 6 34 10 65 7 68 -4 4 -161 34 -179 34 -4 0 -10 -17 -14 -37 -8 -44 -40
-110 -68 -140 -11 -12 -42 -30 -70 -39 -62 -21 -124 -13 -185 22 -37 22 -49
38 -77 99 -86 188 -61 381 59 463 90 61 243 25 292 -70 10 -19 21 -27 32 -24
9 3 49 14 89 26 l72 22 -27 54 c-30 59 -106 129 -182 167 -54 27 -199 34 -270
14z"/>
<path d="M8530 12998 c0 -3 -67 -202 -150 -443 -82 -241 -149 -440 -147 -441
3 -3 166 -64 171 -64 2 0 46 123 97 273 l93 272 37 -155 c20 -85 56 -235 79
-332 l41 -177 92 -30 c50 -17 92 -29 94 -27 6 6 313 879 310 882 -7 7 -170 64
-174 60 -2 -2 -47 -122 -99 -266 -52 -145 -98 -269 -102 -277 -5 -8 -33 103
-66 259 -32 150 -65 303 -73 340 l-15 67 -81 27 c-45 15 -88 29 -94 32 -7 2
-13 2 -13 0z"/>
<path d="M5195 12885 c-5 -2 -49 -16 -96 -30 l-86 -25 -8 -501 c-4 -275 -5
-502 -3 -504 2 -3 46 9 96 26 l91 31 3 111 3 111 154 58 c85 32 157 55 160 50
51 -77 127 -172 135 -169 6 2 55 19 108 36 89 30 97 34 85 50 -36 50 -622 761
-626 760 -4 0 -10 -2 -16 -4z m205 -524 c0 -4 -45 -21 -100 -38 l-100 -30 0
42 c0 23 -3 98 -7 166 l-6 124 106 -129 c59 -71 107 -132 107 -135z"/>
<path d="M4378 12549 l-77 -51 16 -32 c9 -17 66 -121 128 -231 61 -110 118
-211 124 -224 11 -19 -18 -7 -165 70 -99 51 -237 123 -308 160 l-130 67 -78
-39 c-43 -22 -77 -43 -75 -47 2 -4 106 -190 232 -414 l228 -408 76 41 c42 23
79 45 83 48 4 4 -44 96 -108 206 -63 110 -129 224 -146 253 l-30 54 38 -20
c22 -11 156 -83 298 -161 l260 -140 90 49 c53 29 90 55 88 62 -4 13 -449 786
-461 800 -4 4 -41 -15 -83 -43z"/>
<path d="M9397 12177 c-196 -182 -358 -336 -358 -341 0 -5 40 -31 89 -58 l90
-48 72 79 72 80 152 -76 c83 -41 152 -76 153 -77 2 -1 -6 -49 -17 -107 -11
-57 -20 -105 -20 -106 0 -2 45 -25 100 -53 55 -28 100 -49 100 -47 0 2 25 226
55 497 30 271 55 495 55 496 0 4 -177 94 -182 94 -2 0 -164 -150 -361 -333z
m323 -95 c-9 -89 -20 -165 -23 -168 -2 -3 -48 16 -100 42 l-95 48 115 123 c64
68 117 122 119 121 1 -2 -6 -76 -16 -166z"/>
<path d="M10210 11721 c-156 -203 -283 -372 -283 -376 1 -4 117 -97 259 -207
l259 -198 33 37 c18 21 42 50 52 64 l20 27 -185 138 c-114 86 -181 142 -176
148 4 6 106 142 226 301 120 160 222 295 227 301 7 10 -49 61 -132 121 -15 11
-53 -34 -300 -356z"/>
<path d="M3095 11616 c-102 -34 -131 -55 -297 -217 l-167 -164 326 -338 327
-337 178 181 c212 216 223 235 223 364 -1 82 -4 98 -40 180 -103 233 -365 391
-550 331z m260 -268 c78 -74 102 -105 126 -157 30 -66 37 -127 18 -162 -6 -12
-37 -48 -68 -82 -32 -34 -71 -77 -87 -96 l-30 -33 -211 219 -211 219 51 52
c29 29 77 71 107 92 52 38 58 40 131 40 l76 0 98 -92z"/>
<path d="M7450 11280 c0 -5 -9 -10 -20 -10 -11 0 -20 -4 -20 -10 0 -5 -9 -10
-20 -10 -10 0 -30 -11 -44 -25 -14 -14 -28 -25 -31 -25 -4 0 -28 -22 -55 -50
-27 -27 -55 -50 -62 -50 -8 0 -20 -9 -28 -20 -8 -11 -22 -20 -32 -20 -10 0
-18 -7 -18 -16 0 -8 -18 -33 -40 -54 -22 -21 -40 -48 -40 -59 0 -12 -4 -21
-10 -21 -5 0 -10 -9 -10 -19 0 -11 -7 -26 -15 -35 -8 -8 -15 -22 -15 -30 0 -9
-4 -16 -10 -16 -5 0 -10 -9 -10 -20 0 -11 -4 -20 -10 -20 -5 0 -10 -9 -10 -20
0 -11 -4 -20 -10 -20 -5 0 -10 -9 -10 -20 0 -11 -4 -20 -10 -20 -5 0 -10 -16
-10 -35 0 -19 -4 -35 -10 -35 -5 0 -10 -18 -10 -40 0 -22 -4 -40 -10 -40 -5 0
-10 -13 -10 -30 0 -16 -4 -30 -10 -30 -5 0 -10 -9 -10 -20 0 -13 -7 -20 -20
-20 -11 0 -20 -4 -20 -10 0 -5 -7 -10 -16 -10 -9 0 -29 -13 -44 -30 -15 -16
-33 -30 -39 -30 -6 0 -11 -7 -11 -15 0 -8 -4 -15 -10 -15 -5 0 -10 -7 -10 -16
0 -18 -23 -44 -40 -44 -15 0 -60 -46 -60 -62 0 -8 -9 -20 -20 -28 -11 -8 -20
-22 -20 -32 0 -10 -4 -18 -10 -18 -5 0 -10 -9 -10 -20 0 -11 -4 -20 -10 -20
-5 0 -10 -6 -10 -13 0 -7 -9 -19 -20 -27 -11 -8 -20 -25 -20 -39 0 -13 -8 -31
-19 -40 -14 -13 -20 -37 -25 -116 -4 -55 -12 -101 -17 -103 -5 -2 -9 -25 -9
-52 0 -29 -5 -51 -12 -54 -10 -5 -10 -7 0 -12 7 -3 12 -25 12 -53 0 -35 -5
-50 -20 -61 -15 -11 -20 -26 -20 -57 0 -24 -4 -43 -10 -43 -5 0 -10 -11 -10
-25 0 -29 -40 -75 -65 -75 -8 0 -15 -4 -15 -10 0 -5 -7 -10 -16 -10 -20 0 -44
-24 -44 -44 0 -9 -8 -16 -18 -16 -10 0 -24 -9 -32 -20 -8 -11 -20 -20 -27 -20
-15 0 -173 -155 -173 -171 0 -6 -13 -24 -30 -39 -16 -15 -30 -35 -30 -44 0 -9
-4 -16 -10 -16 -5 0 -10 -7 -10 -15 0 -8 -4 -15 -10 -15 -5 0 -10 -9 -10 -20
0 -11 -4 -20 -10 -20 -5 0 -10 -9 -10 -20 0 -11 -4 -20 -9 -20 -6 0 -13 -31
-17 -70 -3 -38 -11 -70 -15 -70 -5 0 -9 -18 -9 -40 0 -22 -4 -40 -10 -40 -6 0
-10 -70 -10 -190 0 -120 4 -190 10 -190 6 0 10 -33 10 -79 0 -44 4 -81 10 -83
5 -1 12 -30 16 -63 5 -39 14 -66 26 -76 11 -10 18 -30 18 -53 0 -20 5 -36 10
-36 6 0 10 -9 10 -20 0 -11 5 -20 10 -20 6 0 10 -9 10 -20 0 -11 5 -20 10 -20
6 0 10 -7 10 -15 0 -8 5 -15 10 -15 6 0 10 -13 10 -30 0 -16 5 -30 10 -30 6 0
10 -8 10 -18 0 -10 9 -24 20 -32 11 -8 20 -22 20 -32 0 -10 5 -18 10 -18 6 0
10 -7 10 -16 0 -9 25 -40 55 -69 30 -29 55 -58 55 -64 0 -7 36 -47 80 -91 44
-44 80 -86 80 -95 0 -8 9 -15 20 -15 33 0 27 -56 -10 -90 -18 -17 -30 -38 -30
-54 0 -14 -4 -26 -10 -26 -5 0 -10 -18 -10 -39 0 -22 -6 -42 -12 -45 -10 -5
-10 -7 0 -12 42 -20 -16 -79 -86 -89 -29 -4 -52 -11 -52 -16 0 -5 -9 -9 -20
-9 -11 0 -20 -4 -20 -10 0 -5 -7 -10 -15 -10 -19 0 -65 -44 -65 -62 0 -8 -9
-20 -20 -28 -21 -15 -28 -50 -10 -50 6 0 10 -18 10 -40 0 -22 -4 -40 -10 -40
-6 0 -10 -32 -10 -75 0 -68 -2 -75 -20 -75 -11 0 -20 -4 -20 -10 0 -5 -13 -10
-30 -10 -16 0 -30 -4 -30 -10 0 -5 -11 -10 -24 -10 -13 0 -27 -6 -29 -12 -4
-10 -8 -9 -17 2 -9 11 -13 12 -17 3 -2 -7 -18 -13 -34 -13 -16 0 -29 -4 -29
-10 0 -5 -18 -10 -40 -10 -22 0 -40 -4 -40 -10 0 -5 -9 -10 -20 -10 -11 0 -20
-4 -20 -10 0 -5 -16 -10 -35 -10 -19 0 -35 -4 -35 -10 0 -5 -13 -10 -30 -10
-16 0 -30 -4 -30 -10 0 -5 -18 -10 -40 -10 -22 0 -40 -4 -40 -9 0 -4 -25 -11
-55 -14 -30 -3 -61 -12 -69 -19 -8 -8 -15 -46 -18 -95 -3 -56 -10 -86 -21 -97
-17 -18 -47 -22 -47 -6 0 6 -18 10 -40 10 -22 0 -40 5 -40 10 0 6 -48 10 -125
10 -77 0 -125 -4 -125 -10 0 -5 -9 -10 -20 -10 -11 0 -20 -4 -20 -10 0 -5 -9
-10 -20 -10 -11 0 -20 -4 -20 -10 0 -5 -11 -10 -25 -10 -24 0 -41 -12 -97 -67
-47 -47 -68 -73 -68 -85 0 -8 -9 -20 -20 -28 -11 -8 -20 -22 -20 -32 0 -10 -4
-18 -10 -18 -5 0 -10 -9 -10 -20 0 -11 -4 -20 -10 -20 -5 0 -10 -20 -10 -45 0
-25 -4 -45 -10 -45 -5 0 -10 -9 -10 -20 0 -11 5 -20 10 -20 6 0 10 -36 10 -88
0 -76 3 -89 20 -102 11 -8 20 -20 20 -27 0 -7 5 -13 10 -13 6 0 10 -9 10 -20
0 -11 5 -20 10 -20 6 0 10 -7 10 -15 0 -9 10 -26 22 -39 13 -13 30 -33 38 -45
9 -13 25 -21 42 -21 21 0 28 -5 28 -20 0 -12 7 -20 16 -20 39 0 44 -22 44
-204 0 -111 4 -176 10 -176 6 0 10 -7 10 -15 0 -9 16 -31 35 -50 28 -28 42
-35 75 -35 22 0 40 -4 40 -10 0 -6 27 -10 60 -10 33 0 60 4 60 10 0 6 9 10 20
10 13 0 20 7 20 18 0 10 9 24 20 32 11 8 20 22 20 32 0 9 9 20 20 23 16 5 20
15 20 56 0 27 5 49 10 49 6 0 10 9 10 20 0 11 5 20 10 20 6 0 10 -13 10 -30 0
-16 -4 -30 -10 -30 -5 0 -10 -9 -10 -20 0 -11 5 -20 10 -20 6 0 10 -9 10 -19
0 -11 6 -22 13 -24 9 -4 9 -6 0 -6 -15 -1 -18 -81 -4 -81 4 0 11 -55 15 -123
4 -67 12 -123 17 -125 28 -11 -5 -62 -40 -62 -12 0 -21 -4 -21 -10 0 -5 -9
-10 -20 -10 -11 0 -20 -4 -20 -10 0 -5 -9 -10 -20 -10 -11 0 -20 -4 -20 -10 0
-5 -13 -10 -28 -10 -16 0 -34 -8 -42 -20 -8 -11 -22 -20 -32 -20 -10 0 -18 -4
-18 -10 0 -5 -13 -10 -29 -10 -21 0 -32 -6 -36 -20 -4 -13 -15 -20 -32 -20
-14 0 -33 -8 -42 -18 -9 -11 -28 -22 -43 -26 -16 -3 -28 -11 -28 -16 0 -6 -13
-10 -30 -10 -16 0 -30 -4 -30 -10 0 -5 -18 -10 -40 -10 -33 0 -40 -3 -40 -20
0 -11 -4 -20 -10 -20 -5 0 -13 -12 -16 -27 -4 -16 -15 -35 -26 -44 -16 -15
-18 -33 -18 -168 0 -94 -4 -151 -10 -151 -15 0 -12 -77 3 -84 10 -5 10 -7 0
-12 -15 -7 -17 -54 -3 -54 6 0 10 -92 10 -255 0 -163 -4 -255 -10 -255 -5 0
-10 -16 -10 -35 0 -19 5 -35 10 -35 6 0 10 -9 10 -20 0 -13 7 -20 20 -20 13 0
20 -7 20 -20 0 -15 7 -20 25 -20 14 0 25 -4 25 -10 0 -5 9 -10 20 -10 11 0 20
-4 20 -10 0 -5 8 -10 18 -10 10 0 24 -9 32 -20 8 -11 21 -20 28 -20 8 0 27
-13 42 -30 15 -16 35 -30 44 -30 9 0 16 -4 16 -9 0 -5 15 -12 33 -15 18 -3 39
-15 47 -26 8 -11 22 -20 32 -20 10 0 18 -4 18 -10 0 -5 8 -10 18 -10 10 0 24
-9 32 -20 8 -11 22 -20 32 -20 10 0 18 -4 18 -10 0 -5 9 -10 20 -10 12 0 20
-7 20 -16 0 -20 24 -44 44 -44 9 0 16 -4 16 -10 0 -5 6 -10 13 -10 7 0 19 -9
27 -20 8 -11 20 -20 28 -20 7 0 28 -15 47 -32 52 -50 63 -58 80 -58 8 0 15 -4
15 -10 0 -5 8 -10 18 -10 10 0 24 -9 32 -20 8 -11 22 -20 32 -20 10 0 18 -4
18 -10 0 -5 6 -10 13 -10 7 0 19 -9 27 -20 8 -11 22 -20 32 -20 10 0 18 -4 18
-10 0 -5 7 -10 16 -10 9 0 29 -13 44 -30 15 -16 34 -30 42 -30 7 0 20 -9 28
-20 10 -14 26 -20 51 -20 24 0 39 -5 43 -15 3 -8 14 -15 23 -15 10 0 25 -9 33
-20 10 -14 26 -20 52 -20 21 0 38 5 38 10 0 6 23 10 50 10 28 0 50 -4 50 -10
0 -5 25 -10 55 -10 30 0 55 5 55 10 0 6 9 10 20 10 11 0 20 -4 20 -10 0 -14
37 -12 44 3 5 9 7 9 12 0 7 -16 164 -18 164 -3 0 6 42 10 105 10 63 0 105 -4
105 -10 0 -5 20 -10 45 -10 25 0 45 5 45 10 0 6 137 10 390 10 253 0 390 4
390 10 0 6 18 10 40 10 22 0 40 -4 40 -10 0 -6 52 -10 135 -10 83 0 135 4 135
10 0 15 57 12 63 -2 4 -10 8 -9 17 2 9 11 13 12 17 3 5 -15 30 -17 35 -4 2 5
214 11 473 14 309 4 471 10 473 17 2 5 12 10 23 10 10 0 19 5 19 10 0 6 9 10
20 10 11 0 20 7 20 15 0 20 45 65 65 65 8 0 15 9 15 20 0 12 7 20 18 20 9 0
28 14 42 31 27 32 49 55 148 149 34 32 62 64 62 70 0 10 105 120 115 120 5 0
31 23 120 107 24 24 51 43 60 43 8 0 15 7 15 15 0 20 45 65 65 65 8 0 15 9 15
20 0 11 4 20 9 20 5 0 12 18 16 40 4 22 11 40 16 40 5 0 9 152 9 365 0 237 4
365 10 365 6 0 10 18 10 40 0 22 -4 40 -10 40 -5 0 -10 20 -10 45 0 25 5 45
10 45 6 0 10 27 10 60 0 33 -4 60 -10 60 -5 0 -10 12 -10 26 0 26 -20 54 -39
54 -6 0 -11 5 -11 10 0 6 -9 10 -20 10 -11 0 -20 5 -20 10 0 6 -9 10 -20 10
-11 0 -20 5 -20 10 0 6 -9 10 -20 10 -10 0 -30 11 -44 25 -14 14 -36 25 -48
25 -13 0 -30 9 -38 20 -8 11 -24 20 -35 20 -11 0 -27 9 -35 20 -8 12 -26 20
-42 20 -15 0 -28 5 -28 10 0 6 -13 10 -30 10 -23 0 -30 4 -30 20 0 11 -7 20
-15 20 -20 0 -85 65 -85 85 0 8 5 15 10 15 6 0 10 5 10 11 0 6 14 24 30 39 23
21 30 37 30 64 0 20 5 36 10 36 6 0 10 35 10 85 0 50 4 85 10 85 6 0 10 -5 10
-10 0 -17 47 -60 65 -60 8 0 15 -4 15 -10 0 -5 9 -10 20 -10 11 0 20 -4 20
-10 0 -6 34 -10 83 -10 71 0 85 3 97 20 8 11 20 20 28 20 20 0 42 26 42 49 0
12 5 21 10 21 6 0 10 9 10 20 0 11 5 20 10 20 6 0 10 9 10 20 0 11 -4 20 -10
20 -5 0 -10 22 -10 49 0 30 -5 52 -12 55 -10 5 -10 7 0 12 6 3 12 17 12 31 0
14 8 33 19 42 10 9 21 26 25 39 4 12 14 22 22 22 19 0 124 105 124 125 0 8 5
15 10 15 6 0 10 9 10 20 0 11 5 20 10 20 6 0 10 9 10 20 0 11 5 20 10 20 6 0
10 16 10 35 0 19 5 35 10 35 6 0 10 27 10 60 0 33 -4 60 -10 60 -14 0 -12 37
3 44 10 5 10 7 0 12 -7 3 -13 21 -13 40 0 19 -4 34 -10 34 -5 0 -10 12 -10 26
0 16 -12 37 -30 54 -16 15 -30 35 -30 44 0 9 -4 16 -10 16 -5 0 -10 7 -10 15
0 20 -65 85 -85 85 -8 0 -15 5 -15 10 0 6 -11 10 -25 10 -14 0 -25 4 -25 9 0
5 -27 12 -60 16 -33 4 -60 11 -60 16 0 5 -27 9 -60 9 -33 0 -60 -4 -60 -10 0
-16 -119 -12 -136 4 -16 17 -19 66 -4 66 6 0 10 32 10 75 0 68 -3 79 -26 102
-21 21 -38 27 -95 31 -38 2 -69 9 -69 13 0 5 -18 9 -40 9 -22 0 -40 5 -40 10
0 6 -13 10 -30 10 -16 0 -30 5 -30 10 0 6 -22 10 -50 10 -27 0 -50 5 -50 10 0
6 -16 10 -35 10 -19 0 -35 5 -35 10 0 6 -27 10 -60 10 -33 0 -60 4 -60 10 0 6
-9 10 -20 10 -11 0 -20 5 -20 10 0 6 -22 10 -50 10 -27 0 -50 5 -50 10 0 6 -9
10 -19 10 -27 0 -31 18 -31 151 0 73 -4 119 -10 119 -5 0 -10 7 -10 15 0 20
-65 85 -85 85 -8 0 -15 5 -15 10 0 6 -9 10 -20 10 -11 0 -20 5 -20 10 0 6 -9
10 -20 10 -11 0 -20 5 -20 10 0 6 -13 10 -28 10 -16 0 -39 8 -50 19 -23 19
-30 51 -12 51 6 0 10 27 10 60 0 33 -4 60 -9 60 -5 0 -11 14 -14 30 -5 20 -12
30 -25 30 -9 0 -24 9 -32 19 -10 15 -31 22 -79 27 -63 7 -91 20 -91 44 0 17
26 40 44 40 9 0 16 8 16 20 0 13 7 20 20 20 13 0 20 7 20 20 0 13 7 20 20 20
11 0 20 5 20 10 0 6 9 10 20 10 16 0 20 7 20 30 0 23 4 30 20 30 12 0 20 7 20
17 0 9 20 35 45 59 25 23 45 49 45 58 0 9 5 16 10 16 6 0 10 8 10 18 0 10 9
24 20 32 11 8 20 21 20 30 0 9 9 22 20 30 11 8 20 22 20 32 0 10 5 18 10 18 6
0 10 7 10 15 0 8 5 15 10 15 6 0 10 14 10 30 0 17 5 30 10 30 6 0 10 9 10 20
0 11 5 20 10 20 6 0 10 9 10 20 0 11 5 20 10 20 6 0 10 18 10 39 0 22 4 41 10
43 5 2 12 48 16 103 3 55 10 102 15 103 12 5 12 392 0 392 -5 0 -12 43 -16 95
-4 52 -11 95 -16 95 -5 0 -9 18 -9 40 0 22 -4 40 -10 40 -5 0 -10 14 -10 30 0
17 -4 30 -10 30 -5 0 -10 7 -10 15 0 8 -4 15 -10 15 -5 0 -10 14 -10 30 0 17
-4 30 -10 30 -5 0 -10 14 -10 30 0 17 -4 30 -10 30 -5 0 -10 9 -10 20 0 11 -4
20 -10 20 -5 0 -10 13 -10 28 0 16 -8 34 -20 42 -11 8 -20 22 -20 32 0 10 -4
18 -10 18 -5 0 -10 7 -10 15 0 8 -4 15 -10 15 -5 0 -10 7 -10 16 0 9 -13 29
-30 44 -16 15 -30 35 -30 44 0 9 -4 16 -9 16 -5 0 -12 17 -16 38 -3 21 -15 45
-26 52 -10 8 -19 22 -19 32 0 10 -4 18 -8 18 -14 0 -52 36 -52 50 0 6 -13 25
-30 40 -16 15 -30 35 -30 44 0 9 -8 16 -20 16 -13 0 -20 7 -20 20 0 11 -4 20
-10 20 -5 0 -10 9 -10 20 0 11 -4 20 -10 20 -5 0 -10 7 -10 16 0 18 -23 44
-39 44 -6 0 -11 7 -11 15 0 8 -4 15 -10 15 -5 0 -10 9 -10 20 0 11 -4 20 -10
20 -5 0 -10 9 -10 20 0 11 -4 20 -10 20 -5 0 -10 8 -10 18 0 10 -9 24 -20 32
-11 8 -20 21 -20 30 0 9 -9 22 -20 30 -11 8 -20 21 -20 30 0 9 -9 22 -20 30
-11 8 -20 19 -20 25 0 6 -9 17 -20 25 -12 8 -20 26 -20 42 0 15 -4 28 -10 28
-5 0 -10 14 -10 30 0 17 -4 30 -10 30 -5 0 -10 9 -10 20 0 11 -4 20 -10 20 -5
0 -10 9 -10 20 0 11 -4 20 -9 20 -5 0 -12 20 -15 45 -4 25 -11 45 -17 45 -5 0
-9 18 -9 40 0 22 -4 40 -10 40 -5 0 -10 14 -10 30 0 17 -4 30 -10 30 -5 0 -10
13 -10 29 0 16 -6 32 -12 35 -10 5 -10 7 0 12 14 7 16 34 2 34 -5 0 -10 23
-10 50 0 28 -4 50 -10 50 -5 0 -10 23 -10 50 0 28 -4 50 -10 50 -5 0 -10 23
-10 50 0 28 5 50 10 50 6 0 10 32 10 75 0 43 4 75 10 75 6 0 10 18 10 40 0 22
5 40 10 40 15 0 12 80 -4 96 -17 16 -106 20 -106 4z m-40 -250 c0 -40 -4 -70
-10 -70 -5 0 -10 -20 -10 -45 0 -25 5 -45 10 -45 6 0 10 -40 10 -100 0 -60 4
-100 10 -100 6 0 10 -16 10 -35 0 -19 5 -35 10 -35 6 0 10 -9 10 -20 0 -11 5
-20 10 -20 6 0 10 -30 10 -70 0 -40 4 -70 10 -70 6 0 10 -13 10 -30 0 -16 5
-30 10 -30 6 0 10 -11 10 -25 0 -14 5 -25 10 -25 6 0 10 -13 10 -30 0 -16 5
-30 10 -30 6 0 10 -9 10 -20 0 -11 5 -20 10 -20 6 0 10 -9 10 -20 0 -11 5 -20
10 -20 6 0 10 -8 10 -18 0 -10 9 -24 20 -32 11 -8 20 -24 20 -36 0 -13 7 -29
15 -38 8 -8 15 -22 15 -30 0 -9 5 -16 10 -16 6 0 10 -9 10 -20 0 -11 5 -20 10
-20 6 0 10 -7 10 -16 0 -9 14 -29 30 -44 18 -17 30 -38 30 -54 0 -14 5 -26 10
-26 6 0 10 -9 10 -20 0 -11 5 -20 10 -20 6 0 10 -9 10 -21 0 -11 18 -38 40
-59 22 -21 40 -46 40 -54 0 -9 5 -16 10 -16 6 0 10 -9 10 -20 0 -13 7 -20 20
-20 11 0 20 -4 20 -10 0 -5 11 -20 25 -34 14 -14 25 -32 25 -41 0 -8 4 -15 8
-15 14 0 52 -36 52 -50 0 -6 14 -25 30 -40 17 -15 30 -34 30 -42 0 -7 9 -20
20 -28 12 -8 20 -26 20 -42 0 -15 5 -28 10 -28 6 0 10 -9 10 -20 0 -11 5 -20
10 -20 6 0 10 -5 10 -11 0 -7 8 -19 19 -28 10 -9 22 -32 26 -51 4 -19 16 -42
26 -51 11 -9 19 -24 19 -33 0 -9 5 -16 10 -16 6 0 10 -9 10 -20 0 -11 5 -20
10 -20 6 0 10 -18 10 -40 0 -22 5 -40 10 -40 6 0 10 -11 10 -25 0 -14 5 -25
10 -25 6 0 10 -13 10 -30 0 -16 5 -30 10 -30 6 0 10 -9 10 -20 0 -11 5 -20 10
-20 6 0 10 -18 10 -40 0 -22 5 -40 10 -40 6 0 10 -25 10 -55 0 -30 5 -55 10
-55 6 0 10 -30 10 -70 0 -40 4 -70 10 -70 6 0 10 -42 10 -105 0 -63 -4 -105
-10 -105 -6 0 -10 -42 -10 -105 0 -63 -4 -105 -10 -105 -5 0 -10 -9 -10 -20 0
-11 -4 -20 -10 -20 -5 0 -10 -22 -10 -48 0 -36 -5 -51 -20 -62 -12 -8 -20 -26
-20 -42 0 -15 -4 -28 -10 -28 -5 0 -10 -8 -10 -18 0 -10 -9 -24 -20 -32 -11
-8 -20 -20 -20 -27 0 -7 -4 -13 -10 -13 -5 0 -10 -8 -10 -18 0 -10 -9 -24 -19
-32 -11 -7 -23 -31 -26 -52 -4 -21 -11 -38 -16 -38 -5 0 -9 -9 -9 -20 0 -13
-7 -20 -20 -20 -13 0 -20 -7 -20 -18 0 -10 -9 -24 -20 -32 -11 -8 -20 -20 -20
-27 0 -7 -4 -13 -10 -13 -5 0 -10 -9 -10 -20 0 -13 -7 -20 -20 -20 -12 0 -20
-7 -20 -16 0 -20 -24 -44 -44 -44 -9 0 -16 -4 -16 -10 0 -5 -7 -10 -16 -10
-21 0 -54 -38 -54 -62 0 -10 -4 -18 -10 -18 -5 0 -10 -9 -10 -20 0 -11 -4 -20
-10 -20 -5 0 -10 -9 -10 -20 0 -13 -7 -20 -20 -20 -11 0 -20 -7 -20 -15 0 -8
-4 -15 -10 -15 -5 0 -10 -9 -10 -20 0 -11 -4 -20 -10 -20 -5 0 -10 -9 -10 -20
0 -11 -4 -20 -10 -20 -5 0 -10 -9 -10 -20 0 -16 -7 -20 -30 -20 -16 0 -30 -4
-30 -10 0 -15 -97 -12 -103 3 -3 7 -3 43 0 80 5 53 9 68 24 72 11 4 19 15 19
26 0 10 5 19 10 19 6 0 10 9 10 20 0 11 5 20 10 20 6 0 10 8 10 18 0 10 9 24
20 32 11 8 20 22 20 32 0 10 7 18 16 18 20 0 44 24 44 44 0 9 5 16 10 16 6 0
10 9 10 19 0 11 9 23 20 26 11 3 20 13 20 22 0 8 13 27 28 41 16 15 32 39 36
55 3 15 11 27 16 27 6 0 10 9 10 20 0 11 5 20 10 20 6 0 10 9 10 20 0 13 7 20
20 20 15 0 20 7 20 29 0 21 6 32 20 36 14 4 20 15 20 33 0 16 8 34 20 42 11 8
20 21 20 30 0 9 9 22 20 30 12 8 20 26 20 42 0 15 5 28 10 28 6 0 10 9 10 20
0 11 5 20 10 20 6 0 10 16 10 35 0 19 5 35 10 35 6 0 10 13 10 29 0 16 4 31
10 33 5 2 13 49 16 106 4 56 11 102 16 102 4 0 8 70 8 155 0 85 -4 155 -9 155
-5 0 -12 59 -16 130 -4 72 -11 130 -16 130 -5 0 -9 16 -9 35 0 19 -4 35 -10
35 -5 0 -10 14 -10 30 0 17 -4 30 -10 30 -5 0 -10 14 -10 30 0 17 -4 30 -10
30 -5 0 -10 14 -10 30 0 17 -4 30 -10 30 -5 0 -10 9 -10 20 0 11 -4 20 -10 20
-5 0 -10 15 -10 33 0 21 -7 38 -20 47 -11 8 -20 21 -20 30 0 9 -9 22 -20 30
-11 8 -20 21 -20 30 0 9 -9 22 -20 30 -11 8 -20 25 -20 39 0 13 -8 31 -19 40
-10 9 -21 26 -25 39 -4 12 -12 22 -17 22 -5 0 -9 13 -9 28 0 16 -8 34 -20 42
-11 8 -20 21 -20 28 0 7 -18 31 -40 52 -22 21 -40 44 -40 50 0 20 -27 40 -54
40 -14 0 -26 -4 -26 -10 0 -5 5 -10 10 -10 6 0 10 -17 10 -38 0 -26 6 -42 20
-52 12 -8 20 -26 20 -42 0 -15 5 -28 10 -28 6 0 10 -13 10 -30 0 -16 5 -30 10
-30 6 0 10 -7 10 -15 0 -8 5 -15 10 -15 6 0 10 -9 10 -20 0 -11 5 -20 10 -20
6 0 10 -17 10 -38 0 -26 6 -42 20 -52 15 -11 20 -26 20 -62 0 -26 5 -48 10
-48 6 0 10 -16 10 -35 0 -19 4 -35 9 -35 5 0 12 -40 15 -90 4 -49 12 -90 17
-90 5 0 9 -20 9 -45 0 -25 5 -45 10 -45 6 0 10 -13 10 -30 0 -16 5 -30 10 -30
6 0 10 -43 10 -110 0 -67 -4 -110 -10 -110 -6 0 -10 -58 -10 -155 0 -97 -4
-155 -10 -155 -5 0 -10 -20 -10 -44 0 -24 -4 -46 -10 -48 -5 -1 -12 -47 -16
-100 -4 -54 -11 -98 -15 -98 -5 0 -9 -6 -9 -13 0 -7 -9 -19 -20 -27 -11 -8
-20 -22 -20 -32 0 -10 -4 -18 -10 -18 -5 0 -10 -20 -10 -46 0 -42 -4 -49 -60
-104 -33 -32 -60 -67 -60 -77 0 -10 -9 -25 -20 -33 -11 -8 -20 -21 -20 -30 0
-9 -9 -22 -20 -30 -11 -8 -20 -25 -20 -38 0 -25 -5 -32 -67 -97 -24 -25 -43
-49 -43 -55 0 -5 -4 -10 -10 -10 -5 0 -10 -13 -10 -30 0 -16 -4 -30 -10 -30
-6 0 -10 -36 -10 -89 0 -62 -4 -91 -12 -95 -10 -5 -10 -7 0 -12 8 -4 12 -29
12 -76 0 -77 -12 -98 -54 -98 -14 0 -26 -4 -26 -10 0 -5 -22 -10 -50 -10 -27
0 -50 5 -50 10 0 6 -7 10 -15 10 -8 0 -15 5 -15 10 0 6 -9 10 -20 10 -12 0
-20 7 -20 16 0 9 -13 29 -30 44 -16 15 -30 35 -30 44 0 9 -4 16 -10 16 -5 0
-10 6 -10 13 0 7 -9 19 -20 27 -11 8 -20 22 -20 32 0 11 -7 18 -20 18 -16 0
-20 7 -20 38 0 26 -6 42 -20 52 -11 8 -20 22 -20 32 0 10 -4 18 -10 18 -5 0
-10 14 -10 30 0 17 -4 30 -9 30 -5 0 -12 29 -16 65 -3 36 -11 65 -16 65 -5 0
-9 87 -9 205 0 113 4 205 9 205 4 0 11 23 14 51 4 33 13 57 27 69 11 9 20 29
20 44 0 14 5 26 10 26 6 0 10 9 10 20 0 11 5 20 10 20 6 0 10 12 10 26 0 25
45 76 99 114 11 8 21 21 21 28 0 8 14 27 30 42 17 15 30 33 30 39 0 7 11 23
25 37 14 14 25 32 25 40 0 9 14 29 30 44 17 15 30 33 30 39 0 6 5 11 10 11 6
0 10 8 10 18 0 10 9 24 20 32 11 8 20 22 20 32 0 10 5 18 10 18 6 0 10 9 10
20 0 11 5 20 10 20 6 0 10 14 10 30 0 17 5 30 10 30 6 0 10 9 10 20 0 11 5 20
10 20 6 0 10 14 10 30 0 17 5 30 10 30 6 0 10 42 10 105 0 63 -4 105 -10 105
-5 0 -10 18 -10 40 0 22 -4 40 -10 40 -5 0 -10 7 -10 15 0 8 -4 15 -10 15 -5
0 -10 13 -10 28 0 16 -8 34 -20 42 -11 8 -20 21 -20 30 0 9 -9 22 -20 30 -12
8 -20 26 -20 42 0 18 -5 28 -15 28 -18 0 -115 95 -115 113 0 7 -9 19 -20 27
-11 8 -20 22 -20 32 0 10 -4 18 -10 18 -5 0 -10 9 -10 20 0 11 -4 20 -10 20
-5 0 -10 8 -10 18 0 10 -9 24 -20 32 -11 8 -20 22 -20 32 0 10 -4 18 -10 18
-5 0 -10 7 -10 15 0 8 -4 15 -10 15 -5 0 -10 9 -10 20 0 11 -4 20 -10 20 -5 0
-10 9 -10 20 0 11 -4 20 -10 20 -5 0 -10 14 -10 30 0 17 -4 30 -10 30 -5 0
-10 12 -10 26 0 15 -9 34 -20 44 -16 14 -21 35 -27 109 -3 50 -10 91 -14 91
-5 0 -9 79 -9 175 0 96 4 175 9 175 4 0 11 33 14 72 4 40 11 74 17 76 5 2 10
12 10 23 0 10 5 19 10 19 6 0 10 13 10 28 0 16 8 34 20 42 11 8 20 21 20 30 0
9 9 22 20 30 11 8 20 22 20 32 0 10 5 18 10 18 6 0 10 9 10 20 0 11 4 20 10
20 5 0 30 20 54 45 25 25 52 45 61 45 8 0 15 9 15 20 0 11 7 20 15 20 8 0 15
5 15 10 0 6 18 10 40 10 l40 0 0 -70z m-560 -770 c0 -16 5 -30 10 -30 6 0 10
-13 10 -30 0 -16 5 -30 10 -30 6 0 10 -13 10 -30 0 -16 5 -30 10 -30 6 0 10
-16 10 -35 0 -19 5 -35 10 -35 6 0 10 -13 10 -30 0 -16 5 -30 10 -30 6 0 10
-13 10 -30 0 -16 5 -30 10 -30 6 0 10 -13 10 -30 0 -16 5 -30 10 -30 6 0 10
-9 10 -20 0 -11 4 -20 9 -20 5 0 12 -16 15 -35 4 -19 11 -35 16 -35 6 0 10
-13 10 -28 0 -16 8 -34 20 -42 11 -8 20 -21 20 -30 0 -9 9 -22 20 -30 11 -8
20 -22 20 -32 0 -10 5 -18 10 -18 6 0 10 -9 10 -20 0 -11 5 -20 10 -20 6 0 10
-9 10 -20 0 -11 4 -20 9 -20 16 0 91 -78 91 -94 0 -9 5 -16 10 -16 6 0 10 -8
10 -18 0 -10 9 -24 20 -32 11 -8 20 -22 20 -32 0 -10 7 -18 15 -18 8 0 15 -9
15 -20 0 -11 5 -20 10 -20 6 0 10 -9 10 -20 0 -11 5 -20 10 -20 6 0 10 -20 10
-45 0 -25 5 -45 10 -45 6 0 10 -18 10 -40 0 -22 5 -40 10 -40 6 0 10 -27 10
-60 0 -33 -4 -60 -10 -60 -5 0 -10 -25 -10 -55 0 -48 -2 -55 -20 -55 -13 0
-20 -7 -20 -20 0 -11 -4 -20 -10 -20 -5 0 -10 -13 -10 -30 0 -16 -4 -30 -9
-30 -5 0 -13 -9 -16 -20 -3 -11 -15 -20 -26 -20 -12 0 -19 -7 -19 -20 0 -13
-7 -20 -20 -20 -11 0 -20 -6 -20 -13 0 -7 -9 -19 -20 -27 -11 -8 -20 -22 -20
-32 0 -11 -7 -18 -20 -18 -12 0 -20 -7 -20 -16 0 -9 -13 -29 -30 -44 -16 -15
-30 -33 -30 -40 0 -6 -17 -28 -39 -49 -21 -20 -42 -51 -45 -67 -4 -17 -16 -36
-26 -44 -11 -8 -20 -22 -20 -32 0 -10 -4 -18 -10 -18 -5 0 -10 -13 -10 -30 0
-16 -4 -30 -10 -30 -5 0 -10 -18 -10 -40 0 -22 -4 -40 -10 -40 -5 0 -10 -9
-10 -20 0 -11 -4 -20 -10 -20 -5 0 -10 -11 -10 -25 0 -14 -4 -25 -10 -25 -6 0
-10 -30 -10 -70 0 -40 -4 -70 -10 -70 -5 0 -10 -13 -10 -30 0 -16 5 -30 10
-30 6 0 10 -48 10 -125 0 -77 4 -125 10 -125 6 0 10 -25 10 -55 0 -30 5 -55
10 -55 6 0 10 -9 10 -20 0 -11 5 -20 10 -20 6 0 10 -13 10 -28 0 -16 8 -34 20
-42 11 -8 20 -22 20 -32 0 -10 5 -18 10 -18 6 0 10 -9 10 -20 0 -11 4 -20 9
-20 5 0 12 -18 16 -40 4 -22 11 -40 16 -40 5 0 9 -11 9 -24 0 -13 6 -26 13
-29 6 -2 9 -8 5 -12 -5 -5 -16 2 -27 13 -10 12 -22 22 -25 22 -9 0 -36 26 -36
35 0 4 -13 20 -30 35 -16 15 -30 34 -30 42 0 7 -9 20 -20 28 -11 8 -20 21 -20
28 0 8 -13 27 -30 42 -24 22 -30 36 -30 69 0 23 -4 41 -10 41 -5 0 -10 23 -10
50 0 28 -4 50 -10 50 -5 0 -10 18 -10 39 0 22 -6 42 -12 45 -10 5 -10 7 0 12
8 4 12 30 12 80 0 43 4 74 10 74 6 0 10 27 10 60 0 33 4 60 10 60 6 0 10 18
10 40 0 22 5 40 10 40 6 0 10 15 10 33 0 21 7 38 20 47 12 8 20 26 20 42 0 15
5 28 10 28 6 0 10 8 10 18 0 10 9 24 20 32 12 8 20 26 20 42 0 15 5 28 10 28
6 0 10 9 10 19 0 11 9 23 20 26 14 4 20 15 20 36 0 16 4 29 9 29 6 0 13 32 17
70 3 39 11 70 15 70 14 0 11 38 -3 44 -10 5 -10 7 0 12 15 7 18 274 2 274 -5
0 -10 14 -10 30 0 17 5 30 13 30 8 0 9 2 1 8 -6 4 -15 37 -18 75 -4 37 -12 67
-17 67 -5 0 -9 18 -9 40 0 22 -4 40 -10 40 -5 0 -10 9 -10 20 0 11 -4 20 -10
20 -5 0 -10 6 -10 13 0 7 -9 19 -20 27 -14 10 -20 26 -20 50 0 24 -6 40 -20
50 -11 8 -20 26 -20 40 0 14 -9 32 -20 40 -17 12 -20 26 -20 87 0 42 -4 73
-10 73 -5 0 -10 18 -10 40 0 22 -4 40 -10 40 -5 0 -10 23 -10 50 0 28 -4 50
-10 50 -6 0 -10 62 -10 165 0 103 4 165 10 165 6 0 10 20 10 45 0 25 5 45 10
45 6 0 10 23 10 50 0 28 5 50 10 50 6 0 10 9 10 20 0 11 5 20 10 20 6 0 10
-13 10 -30z m-170 -160 c0 -16 -4 -30 -10 -30 -15 0 -13 -107 3 -113 9 -4 8
-8 -3 -17 -11 -9 -12 -13 -2 -17 8 -3 12 -28 12 -74 0 -38 4 -69 8 -69 5 0 12
-71 15 -157 4 -91 11 -159 17 -161 5 -2 10 -11 10 -21 0 -9 9 -23 20 -31 14
-10 20 -26 20 -52 0 -21 5 -38 10 -38 6 0 10 -13 10 -30 0 -16 5 -30 10 -30 6
0 10 -16 10 -35 0 -19 5 -35 10 -35 6 0 10 -9 10 -20 0 -11 5 -20 10 -20 6 0
10 -13 10 -28 0 -16 8 -34 20 -42 11 -8 20 -22 20 -32 0 -10 5 -18 10 -18 6 0
10 -27 10 -60 0 -33 4 -60 10 -60 6 0 10 -20 10 -45 0 -25 5 -45 10 -45 6 0
10 -45 10 -115 0 -70 -4 -115 -10 -115 -5 0 -10 -13 -10 -29 0 -16 -6 -32 -12
-35 -10 -5 -10 -7 0 -12 14 -7 17 -64 2 -64 -5 0 -10 -9 -10 -20 0 -11 -4 -20
-10 -20 -5 0 -10 -9 -10 -20 0 -11 -4 -20 -10 -20 -5 0 -10 -13 -10 -30 0 -16
-4 -30 -10 -30 -5 0 -10 -7 -10 -15 0 -8 -4 -15 -10 -15 -5 0 -10 -9 -10 -20
0 -11 -4 -20 -10 -20 -5 0 -10 -9 -10 -20 0 -11 -4 -20 -10 -20 -5 0 -10 -13
-10 -30 0 -16 -4 -30 -10 -30 -5 0 -10 -13 -10 -30 0 -16 -4 -30 -10 -30 -5 0
-10 -7 -10 -16 0 -9 -10 -25 -22 -35 -18 -16 -22 -33 -26 -119 -3 -55 -9 -100
-13 -100 -5 0 -9 -20 -9 -44 0 -26 -5 -47 -12 -50 -10 -5 -10 -7 0 -12 6 -3
12 -19 12 -35 0 -16 5 -29 10 -29 6 0 10 -9 10 -20 0 -11 -4 -20 -10 -20 -13
0 -13 -77 0 -82 5 -1 12 -36 16 -75 4 -40 11 -73 15 -73 5 0 9 -9 9 -20 0 -11
5 -20 10 -20 6 0 10 -9 10 -20 0 -11 5 -20 10 -20 6 0 10 -8 10 -18 0 -10 9
-24 20 -32 11 -8 20 -22 20 -32 0 -10 5 -18 10 -18 6 0 10 -9 10 -20 0 -11 4
-20 10 -20 5 0 20 -11 34 -25 14 -14 32 -25 41 -25 8 0 15 -9 15 -20 0 -11 5
-20 10 -20 6 0 10 -13 10 -30 l0 -30 -90 0 c-53 0 -90 4 -90 10 0 6 -20 10
-45 10 -25 0 -45 5 -45 10 0 6 -9 10 -20 10 -11 0 -20 5 -20 10 0 6 -7 10 -15
10 -20 0 -65 44 -65 64 0 8 -9 18 -20 21 -11 3 -20 11 -20 16 0 5 -7 9 -16 9
-9 0 -29 14 -44 30 -15 17 -33 30 -39 30 -6 0 -11 7 -11 15 0 18 -44 65 -60
65 -6 0 -40 29 -75 65 -36 36 -70 65 -75 65 -6 0 -10 7 -10 16 0 9 -13 29 -30
44 -16 15 -30 35 -30 44 0 9 -4 16 -10 16 -5 0 -10 9 -10 20 0 10 -11 30 -25
44 -14 14 -25 32 -25 41 0 8 -4 15 -10 15 -5 0 -10 9 -10 20 0 11 -4 20 -10
20 -5 0 -10 7 -10 15 0 8 -4 15 -10 15 -5 0 -10 9 -10 20 0 11 -4 20 -10 20
-5 0 -10 14 -10 30 0 17 -4 30 -10 30 -5 0 -10 9 -10 20 0 11 -4 20 -10 20 -5
0 -10 14 -10 30 0 17 -4 30 -10 30 -5 0 -10 14 -10 30 0 17 -4 30 -10 30 -5 0
-10 20 -10 45 0 25 -4 45 -10 45 -5 0 -10 14 -10 30 0 17 -4 30 -10 30 -6 0
-10 45 -10 114 0 82 -4 116 -12 120 -10 5 -10 7 0 12 8 4 12 38 12 120 0 69 4
114 10 114 6 0 10 14 10 30 0 17 5 30 10 30 6 0 10 14 10 30 0 17 5 30 10 30
6 0 10 9 10 20 0 11 5 20 10 20 6 0 10 8 10 18 0 10 9 24 20 32 11 8 20 24 20
35 0 11 9 27 20 35 11 8 20 21 20 28 0 7 18 31 40 52 22 21 40 46 40 54 0 9 5
16 11 16 6 0 24 14 39 30 15 17 33 30 39 30 7 0 27 15 46 33 49 47 63 57 75
57 15 0 60 46 60 61 0 6 8 19 18 28 11 9 22 28 26 44 3 15 11 27 16 27 6 0 10
18 10 40 0 22 5 40 10 40 6 0 10 35 10 85 0 50 4 85 10 85 6 0 10 9 10 20 0
11 5 20 10 20 6 0 10 25 10 55 0 30 5 55 10 55 6 0 10 23 10 50 0 28 5 50 10
50 6 0 10 14 10 30 0 17 5 30 10 30 6 0 10 17 10 38 0 26 6 42 20 52 11 8 20
20 20 27 0 7 5 13 10 13 6 0 10 7 10 15 0 22 22 44 43 45 12 0 17 -8 17 -30z
m1470 -1720 c0 -16 -4 -30 -10 -30 -6 0 -10 -28 -10 -65 0 -37 -4 -65 -10 -65
-5 0 -10 -22 -10 -50 0 -27 -4 -50 -10 -50 -5 0 -10 -22 -10 -50 0 -27 -4 -50
-10 -50 -5 0 -10 -7 -10 -15 0 -8 -4 -15 -10 -15 -5 0 -10 -13 -10 -28 0 -16
-8 -34 -20 -42 -11 -8 -20 -26 -20 -40 0 -14 -9 -32 -20 -40 -11 -8 -20 -22
-20 -32 0 -10 -4 -18 -9 -18 -5 0 -11 -14 -15 -30 -3 -19 -28 -53 -66 -90 -33
-32 -60 -66 -60 -74 0 -19 -16 -21 -23 -3 -2 7 -8 8 -13 3 -5 -5 -4 -11 4 -13
19 -7 14 -37 -8 -53 -11 -8 -20 -22 -20 -32 0 -10 -4 -18 -10 -18 -5 0 -10 -8
-10 -19 0 -13 -9 -20 -30 -24 -21 -5 -30 -12 -30 -27 0 -11 -4 -20 -10 -20 -5
0 -10 -13 -10 -30 0 -19 -5 -30 -14 -30 -8 0 -16 -6 -19 -12 -2 -7 -8 -9 -13
-5 -5 4 -3 11 3 15 6 4 14 24 18 45 4 20 11 37 16 37 5 0 9 7 9 15 0 8 5 15
10 15 6 0 10 9 10 20 0 11 5 20 10 20 6 0 10 9 10 20 0 11 5 20 10 20 6 0 10
7 10 16 0 8 18 33 40 54 22 21 40 45 40 52 0 7 9 20 20 28 11 8 20 22 20 32 0
9 9 20 20 23 11 3 20 15 20 26 0 10 5 19 10 19 6 0 10 7 10 16 0 9 8 24 19 33
10 9 22 32 26 51 4 19 16 42 26 51 11 9 19 28 19 43 0 14 5 26 10 26 6 0 10
15 10 33 0 21 7 38 20 47 12 8 20 26 20 42 0 15 5 28 10 28 6 0 10 23 10 50 0
28 5 50 10 50 6 0 10 20 10 45 0 25 5 45 10 45 6 0 10 11 10 25 0 25 17 54 33
55 4 0 7 -13 7 -30z m-1760 -1410 c0 -5 16 -10 35 -10 19 0 35 -4 35 -10 0 -6
27 -10 60 -10 33 0 60 -4 60 -10 0 -6 27 -10 60 -10 33 0 60 -4 60 -10 0 -6
28 -10 65 -10 37 0 65 -4 65 -10 0 -6 30 -10 69 -10 46 0 71 -4 74 -12 4 -10
8 -9 17 2 9 12 12 13 17 1 5 -11 7 -11 14 0 7 11 11 11 17 1 11 -16 615 -19
620 -2 5 13 42 13 42 0 0 -5 14 -10 30 -10 17 0 30 5 30 10 0 6 27 10 60 10
33 0 60 4 60 10 0 6 14 10 30 10 17 0 30 -4 30 -10 0 -5 7 -10 15 -10 8 0 15
5 15 10 0 6 18 10 40 10 22 0 40 5 40 10 0 6 18 10 40 10 37 0 40 -2 40 -29 0
-30 -14 -41 -56 -41 -13 0 -24 -4 -24 -10 0 -5 -25 -10 -55 -10 -30 0 -55 -4
-55 -10 0 -6 -30 -10 -70 -10 -40 0 -70 -4 -70 -10 0 -5 -13 -10 -30 -10 -16
0 -30 5 -30 10 0 6 -9 10 -20 10 -11 0 -20 -4 -20 -10 0 -5 -25 -10 -55 -10
-30 0 -55 -4 -55 -10 0 -6 -47 -10 -120 -10 -73 0 -120 -4 -120 -10 0 -6 -28
-10 -65 -10 -37 0 -65 4 -65 10 0 6 -33 10 -80 10 -47 0 -80 4 -80 10 0 14
-47 12 -54 -2 -5 -10 -7 -10 -12 0 -3 6 -23 12 -44 12 -21 0 -41 6 -44 13 -5
10 -7 10 -12 0 -7 -15 -44 -17 -44 -3 0 14 -37 12 -44 -2 -5 -10 -7 -10 -12 0
-3 6 -23 12 -45 12 -21 0 -39 5 -39 10 0 6 -15 10 -34 10 -19 0 -36 5 -38 11
-2 6 -50 12 -113 16 -61 3 -111 9 -113 14 -2 5 -15 9 -29 9 -34 0 -53 22 -53
64 0 33 2 36 30 36 17 0 30 -4 30 -10z m-40 -190 c0 -5 9 -10 20 -10 11 0 20
-4 20 -10 0 -5 7 -10 15 -10 8 0 15 -4 15 -10 0 -6 37 -10 90 -10 53 0 90 -4
90 -10 0 -5 14 -10 30 -10 17 0 30 -4 30 -10 0 -6 38 -10 95 -10 57 0 95 -4
95 -10 0 -6 30 -10 70 -10 40 0 70 -4 70 -10 0 -6 35 -10 85 -10 50 0 85 -4
85 -10 0 -16 207 -13 214 3 5 10 7 10 12 0 7 -15 44 -17 44 -3 0 6 9 10 20 10
11 0 20 -4 20 -10 0 -5 9 -10 20 -10 11 0 20 5 20 10 0 6 35 10 85 10 50 0 85
4 85 10 0 6 18 10 40 10 22 0 40 5 40 10 0 6 33 10 80 10 47 0 80 4 80 10 0
15 87 12 94 -2 5 -10 7 -10 12 0 3 6 14 12 25 12 10 0 19 5 19 10 0 6 9 10 20
10 11 0 20 5 20 10 0 6 8 10 18 10 10 0 24 9 32 20 8 11 21 20 30 20 9 0 22
-9 30 -20 11 -15 26 -20 57 -20 24 0 43 -4 43 -10 0 -5 9 -10 20 -10 16 0 20
-7 20 -30 0 -22 -5 -30 -18 -30 -10 0 -24 -9 -32 -20 -11 -15 -26 -20 -57 -20
-24 0 -43 -4 -43 -10 0 -5 -9 -10 -20 -10 -11 0 -20 -4 -20 -10 0 -5 -9 -10
-20 -10 -11 0 -20 5 -20 10 0 6 -9 10 -20 10 -11 0 -20 -4 -20 -10 0 -5 -13
-10 -30 -10 -16 0 -30 -4 -30 -10 0 -6 -35 -10 -84 -10 -46 0 -86 -4 -88 -9
-1 -6 -99 -13 -215 -17 -117 -4 -213 -11 -213 -16 0 -4 -9 -8 -20 -8 -11 0
-20 5 -20 10 0 6 -9 10 -20 10 -11 0 -20 -4 -20 -10 0 -5 -20 -10 -45 -10 -25
0 -45 5 -45 10 0 6 -9 10 -20 10 -11 0 -20 -4 -20 -10 0 -5 -13 -10 -30 -10
-16 0 -30 4 -30 8 0 5 -73 12 -162 16 -92 3 -164 11 -166 16 -2 6 -33 10 -68
10 -36 0 -64 4 -64 10 0 6 -30 10 -70 10 -63 0 -70 2 -70 20 0 18 -7 20 -60
20 -33 0 -60 4 -60 10 0 6 -11 10 -25 10 -14 0 -25 5 -25 10 0 6 -18 10 -40
10 -22 0 -40 5 -40 10 0 6 -9 10 -20 10 -11 0 -20 5 -20 10 0 6 -18 10 -40 10
-33 0 -40 3 -40 20 0 13 7 20 18 20 10 0 24 9 32 20 11 15 26 20 62 20 26 0
48 -4 48 -10z m-250 -180 c0 -5 11 -10 25 -10 14 0 25 -4 25 -10 0 -5 9 -10
20 -10 11 0 20 -4 20 -9 0 -5 36 -12 80 -16 44 -4 80 -11 80 -16 0 -5 14 -9
30 -9 17 0 30 -4 30 -10 0 -5 11 -10 25 -10 14 0 25 -4 25 -10 0 -6 33 -10 80
-10 47 0 80 -4 80 -10 0 -5 14 -10 30 -10 17 0 30 -4 30 -10 0 -14 27 -12 34
3 5 10 7 10 12 0 4 -8 27 -13 65 -13 33 0 59 -4 59 -10 0 -6 33 -10 80 -10 57
0 80 -4 81 -12 0 -10 2 -10 6 0 6 14 63 17 63 2 0 -16 637 -13 643 3 4 9 8 8
17 -3 9 -11 13 -12 17 -2 3 8 26 12 64 12 33 0 59 4 59 10 0 6 25 10 55 10 30
0 55 5 55 10 0 6 18 10 40 10 22 0 40 5 40 10 0 6 27 10 60 10 33 0 60 4 60
10 0 6 11 10 25 10 14 0 25 5 25 10 0 6 18 10 40 10 22 0 40 5 40 10 0 15 70
12 86 -4 8 -8 14 -33 14 -56 0 -55 -52 -110 -105 -110 -19 0 -35 -4 -35 -10 0
-5 -20 -10 -45 -10 -25 0 -45 -4 -45 -10 0 -5 -18 -10 -40 -10 -22 0 -40 -4
-40 -10 0 -5 -22 -10 -50 -10 -27 0 -50 -4 -50 -10 0 -5 -15 -10 -34 -10 -19
0 -37 -6 -39 -12 -4 -10 -8 -9 -16 2 -10 13 -12 13 -21 0 -9 -13 -11 -13 -20
0 -8 12 -12 12 -18 3 -5 -9 -53 -15 -140 -19 -73 -4 -132 -11 -132 -16 0 -4
-124 -8 -275 -8 -177 0 -275 4 -275 10 0 14 -27 12 -33 -2 -4 -9 -8 -10 -14
-2 -5 7 -73 13 -178 17 -102 4 -171 11 -173 17 -5 14 -59 12 -66 -2 -5 -10 -7
-10 -12 0 -3 6 -19 12 -35 12 -16 0 -29 5 -29 10 0 6 -20 10 -45 10 -25 0 -45
5 -45 10 0 6 -18 10 -40 10 -22 0 -40 5 -40 10 0 6 -18 10 -40 10 -22 0 -40 5
-40 10 0 6 -17 10 -38 10 -26 0 -42 6 -52 20 -9 12 -26 20 -43 20 -35 0 -77
40 -77 75 0 14 -4 25 -10 25 -5 0 -10 9 -10 20 0 11 5 20 10 20 6 0 10 7 10
15 0 8 5 15 10 15 6 0 10 9 10 20 0 13 7 20 20 20 11 0 20 -4 20 -10z m-140
-270 c0 -5 9 -10 20 -10 11 0 20 -4 20 -10 0 -5 14 -10 30 -10 17 0 30 -4 30
-10 0 -5 9 -10 20 -10 11 0 20 -4 20 -9 0 -4 28 -11 62 -14 34 -3 64 -10 66
-16 2 -6 21 -11 43 -11 21 0 39 -4 39 -10 0 -5 14 -10 30 -10 17 0 30 -4 30
-10 0 -5 20 -10 45 -10 25 0 45 -4 45 -10 0 -6 27 -10 60 -10 33 0 60 -4 60
-10 0 -5 18 -10 40 -10 22 0 40 -4 40 -10 0 -6 28 -10 65 -10 37 0 65 -4 65
-10 0 -6 43 -10 110 -10 67 0 110 -4 110 -10 0 -16 207 -13 214 3 5 10 7 10
12 0 7 -16 274 -19 274 -3 0 6 18 10 40 10 33 0 40 -3 40 -20 0 -13 7 -20 19
-20 11 0 23 9 26 20 5 16 15 20 46 20 21 0 39 5 39 10 0 6 33 10 80 10 47 0
80 4 80 10 0 6 25 10 55 10 30 0 55 5 55 10 0 6 23 10 50 10 28 0 50 5 50 10
0 6 23 10 50 10 28 0 50 5 50 10 0 6 9 10 20 10 11 0 20 5 20 10 0 6 11 10 24
10 13 0 26 4 28 10 2 5 37 13 78 16 54 5 79 12 91 26 12 13 30 18 68 18 28 0
51 -4 51 -10 0 -15 77 -12 84 3 5 10 7 10 12 0 3 -7 14 -13 25 -13 10 0 19 -4
19 -9 0 -5 38 -12 85 -16 47 -4 85 -11 85 -16 0 -5 18 -9 40 -9 22 0 40 -4 40
-10 0 -5 14 -10 30 -10 17 0 30 -4 30 -10 0 -5 12 -10 26 -10 33 0 54 -21 54
-54 0 -19 -5 -26 -20 -26 -11 0 -20 -4 -20 -10 0 -5 -13 -10 -30 -10 -16 0
-30 -4 -30 -10 0 -5 -7 -10 -16 -10 -9 0 -29 -13 -44 -30 -17 -18 -38 -30 -53
-30 -17 0 -28 -7 -32 -20 -4 -13 -18 -23 -36 -27 -16 -3 -29 -9 -29 -14 0 -5
-9 -9 -20 -9 -11 0 -20 -4 -20 -10 0 -5 -17 -10 -38 -10 -26 0 -42 -6 -52 -20
-8 -12 -26 -20 -42 -20 -15 0 -28 -4 -28 -10 0 -6 -51 -10 -134 -10 -98 0
-136 -3 -140 -12 -5 -10 -7 -10 -12 0 -4 8 -32 12 -89 12 -57 0 -85 -4 -89
-12 -5 -10 -7 -10 -12 0 -4 9 -96 12 -410 12 -263 0 -404 3 -404 10 0 6 -13
10 -30 10 -16 0 -30 -4 -30 -10 0 -6 -30 -10 -70 -10 -40 0 -70 4 -70 10 0 15
-57 12 -64 -2 -5 -10 -7 -10 -12 0 -7 14 -54 16 -54 2 0 -5 -9 -10 -20 -10
-11 0 -20 5 -20 10 0 14 -37 12 -44 -2 -5 -10 -7 -10 -12 0 -7 15 -144 17
-144 2 0 -15 -47 -12 -53 3 -4 9 -8 8 -17 -3 -9 -11 -13 -12 -17 -2 -6 15
-163 17 -163 2 0 -6 -38 -10 -95 -10 -57 0 -95 4 -95 10 0 6 -18 10 -40 10
-22 0 -40 5 -40 10 0 6 -13 10 -30 10 -16 0 -30 5 -30 10 0 6 -11 10 -25 10
-14 0 -25 5 -25 10 0 6 -13 10 -30 10 -16 0 -30 4 -30 9 0 5 -18 12 -40 16
-22 4 -40 11 -40 16 0 5 -12 9 -26 9 -16 0 -37 12 -54 30 -19 21 -37 30 -59
30 -17 0 -31 5 -31 10 0 6 -18 10 -40 10 -22 0 -40 5 -40 10 0 6 -9 10 -20 10
-11 0 -20 5 -20 10 0 6 -9 10 -20 10 -11 0 -20 5 -20 10 0 6 -9 10 -20 10 -11
0 -20 5 -20 10 0 6 -12 10 -26 10 -33 0 -54 21 -54 54 0 19 5 26 20 26 11 0
20 4 20 9 0 5 36 12 80 16 44 4 80 11 80 16 0 5 14 9 30 9 17 0 30 5 30 10 0
6 7 10 15 10 8 0 15 5 15 10 0 6 23 10 50 10 28 0 50 5 50 10 0 6 14 10 30 10
17 0 30 -4 30 -10z m-620 -230 c0 -5 9 -10 20 -10 11 0 20 -4 20 -10 0 -5 18
-10 40 -10 22 0 40 -4 40 -10 0 -5 7 -10 15 -10 8 0 15 -4 15 -10 0 -5 9 -10
20 -10 11 0 20 -4 20 -10 0 -5 14 -10 30 -10 17 0 30 -4 30 -10 0 -5 12 -10
26 -10 14 0 32 -7 40 -15 9 -8 29 -15 45 -15 16 0 29 -4 29 -10 0 -5 14 -10
30 -10 17 0 30 -4 30 -10 0 -5 7 -10 15 -10 8 0 15 -4 15 -10 0 -5 9 -10 20
-10 11 0 20 -4 20 -10 0 -5 14 -10 30 -10 17 0 30 -4 30 -10 0 -5 9 -10 20
-10 11 0 20 -4 20 -10 0 -5 18 -10 40 -10 22 0 40 -4 40 -10 0 -5 9 -10 20
-10 11 0 20 -4 20 -10 0 -5 9 -10 20 -10 12 0 32 -11 45 -25 24 -23 25 -28 25
-174 0 -110 -3 -151 -12 -155 -10 -5 -10 -7 0 -12 15 -7 17 -134 2 -134 -5 0
-10 -18 -10 -40 0 -22 5 -40 10 -40 6 0 10 -48 10 -125 0 -77 -4 -125 -10
-125 -6 0 -10 -35 -10 -85 0 -50 4 -85 10 -85 6 0 10 -18 10 -40 0 -22 -4 -40
-10 -40 -5 0 -10 -9 -10 -20 0 -11 5 -20 10 -20 6 0 10 -37 10 -90 0 -53 -4
-90 -10 -90 -14 0 -12 -27 3 -34 10 -5 10 -7 0 -12 -9 -4 -13 -39 -13 -125 l0
-119 -45 0 c-25 0 -45 5 -45 10 0 6 -9 10 -20 10 -11 0 -20 5 -20 10 0 6 -18
10 -40 10 -33 0 -40 3 -40 20 0 17 -7 20 -40 20 -33 0 -40 3 -40 20 0 16 -7
20 -30 20 -16 0 -30 5 -30 10 0 6 -11 10 -25 10 -14 0 -25 5 -25 10 0 6 -8 10
-18 10 -10 0 -24 9 -32 20 -8 12 -26 20 -42 20 -15 0 -28 5 -28 10 0 6 -17 10
-38 10 -26 0 -42 6 -52 20 -8 11 -22 20 -32 20 -10 0 -18 4 -18 9 0 5 -20 12
-45 15 -25 4 -45 11 -45 17 0 5 -13 9 -30 9 -16 0 -30 5 -30 10 0 6 -7 10 -15
10 -9 0 -27 11 -40 25 -19 18 -25 35 -25 70 0 25 5 45 10 45 7 0 10 162 10
465 0 303 3 465 10 465 6 0 10 25 10 55 0 30 -4 55 -10 55 -6 0 -10 27 -10 60
0 33 4 60 10 60 6 0 10 23 10 50 0 28 -4 50 -10 50 -5 0 -10 11 -10 25 0 14 5
25 10 25 6 0 10 14 10 30 0 17 -4 30 -10 30 -14 0 -12 28 3 45 14 16 47 20 47
5z m3856 -84 c17 -18 19 -72 2 -80 -10 -5 -10 -7 0 -12 15 -7 18 -254 2 -254
-6 0 -10 -50 -10 -130 0 -80 -4 -130 -10 -130 -15 0 -13 -147 3 -153 9 -4 9
-7 0 -14 -9 -6 -13 -97 -15 -339 -3 -293 -5 -332 -20 -347 -9 -9 -22 -17 -29
-17 -6 0 -19 -8 -28 -18 -9 -11 -28 -22 -43 -26 -19 -4 -28 -13 -28 -26 0 -15
-7 -20 -28 -20 -16 0 -34 -8 -42 -20 -8 -11 -22 -20 -32 -20 -10 0 -18 -4 -18
-10 0 -5 -9 -10 -20 -10 -11 0 -20 -4 -20 -8 0 -16 -37 -52 -54 -52 -9 0 -16
-4 -16 -10 0 -5 -9 -10 -20 -10 -11 0 -20 -4 -20 -10 0 -5 -8 -10 -18 -10 -10
0 -24 -9 -32 -20 -17 -23 -55 -26 -76 -6 -17 17 -21 226 -4 226 14 0 12 27 -2
34 -10 5 -10 7 0 12 6 3 12 14 12 24 0 10 -6 21 -12 24 -10 5 -10 7 0 12 15 7
17 184 2 184 -5 0 -10 25 -10 55 0 30 5 55 10 55 7 0 10 145 10 415 0 270 3
415 10 415 6 0 10 7 10 16 0 20 24 44 44 44 9 0 16 5 16 10 0 6 9 10 20 10 11
0 20 5 20 10 0 6 9 10 20 10 11 0 20 5 20 10 0 6 9 10 20 10 11 0 20 5 20 10
0 6 7 10 15 10 8 0 15 5 15 10 0 6 8 10 18 10 10 0 24 9 32 20 8 11 22 20 32
20 10 0 18 5 18 10 0 6 9 10 20 10 11 0 20 5 20 10 0 6 9 10 19 10 11 0 26 7
35 15 8 8 22 15 30 15 9 0 16 5 16 10 0 6 9 10 20 10 11 0 20 5 20 10 0 15 39
12 56 -4z m-4146 -66 c0 -5 8 -10 18 -10 10 0 24 -9 32 -20 8 -11 20 -20 28
-20 7 0 24 -11 37 -25 23 -22 25 -31 25 -125 0 -60 -4 -100 -10 -100 -6 0 -10
-50 -10 -130 0 -80 -4 -130 -10 -130 -5 0 -10 22 -10 49 0 30 -5 51 -12 54
-10 4 -9 8 2 17 11 9 12 13 3 17 -9 3 -13 28 -13 74 0 39 -4 69 -10 69 -5 0
-10 14 -10 30 0 45 -58 100 -105 100 -19 0 -35 5 -35 10 0 6 -20 10 -45 10
-25 0 -45 -4 -45 -10 0 -5 -11 -10 -25 -10 -29 0 -95 -59 -95 -85 0 -8 -4 -15
-10 -15 -5 0 -10 -7 -10 -15 0 -8 -4 -15 -10 -15 -5 0 -10 -22 -10 -49 0 -30
-5 -52 -12 -55 -10 -5 -10 -7 0 -12 18 -9 17 -181 -2 -200 -17 -16 -46 -19
-46 -4 0 6 -9 10 -20 10 -11 0 -20 7 -20 15 0 8 -4 15 -10 15 -5 0 -10 9 -10
19 0 11 -4 21 -10 23 -5 2 -13 38 -16 81 -4 42 -11 77 -15 77 -5 0 -9 18 -9
40 0 22 4 40 9 40 5 0 12 20 15 45 4 25 11 45 17 45 5 0 9 7 9 16 0 9 14 29
30 44 17 15 30 35 30 44 0 11 9 16 30 16 21 0 30 5 30 16 0 28 27 44 74 44 25
0 46 5 46 10 0 6 42 10 105 10 63 0 105 -4 105 -10z m4530 -80 c0 -5 14 -10
30 -10 17 0 30 -4 30 -10 0 -5 9 -10 20 -10 11 0 20 -4 20 -10 0 -5 13 -10 28
-10 17 0 33 -8 42 -21 8 -12 21 -27 28 -35 6 -7 12 -20 12 -28 0 -9 5 -16 10
-16 6 0 10 -9 10 -20 0 -11 5 -20 10 -20 6 0 10 -11 10 -25 0 -14 5 -25 10
-25 6 0 10 -40 10 -100 0 -60 -4 -100 -10 -100 -5 0 -10 -9 -10 -20 0 -11 -4
-20 -10 -20 -5 0 -10 -7 -10 -15 0 -8 -4 -15 -10 -15 -5 0 -10 -9 -10 -20 0
-11 -4 -20 -9 -20 -5 0 -13 -9 -16 -20 -3 -11 -15 -20 -26 -20 -16 0 -19 7
-19 55 0 30 5 55 10 55 6 0 10 54 10 143 0 131 -2 144 -20 157 -11 8 -20 22
-20 32 0 11 -7 18 -20 18 -11 0 -20 5 -20 10 0 6 -18 10 -39 10 -22 0 -42 6
-45 13 -5 10 -7 10 -12 0 -3 -8 -25 -13 -55 -13 -27 0 -49 -4 -49 -8 0 -16
-37 -52 -54 -52 -9 0 -16 -6 -16 -13 0 -7 -9 -19 -20 -27 -11 -8 -20 -22 -20
-32 0 -10 -4 -18 -10 -18 -5 0 -10 14 -10 30 0 17 -4 30 -10 30 -5 0 -10 11
-10 25 0 14 5 25 10 25 14 0 12 58 -2 62 -16 6 35 58 57 58 8 0 15 5 15 10 0
6 16 10 35 10 19 0 35 5 35 10 0 6 27 10 60 10 33 0 60 -4 60 -10z m-2686
-142 c5 -10 7 -10 12 0 3 6 18 12 34 12 16 0 31 -6 34 -12 5 -10 7 -10 12 0 3
6 16 12 29 12 13 0 26 -6 29 -12 5 -10 7 -10 12 0 3 6 18 12 34 12 16 0 31 -6
34 -12 5 -10 7 -10 12 0 3 7 25 12 54 12 29 0 50 -5 53 -12 4 -10 8 -9 17 2 9
11 13 12 17 3 2 -7 13 -13 24 -13 10 0 19 -4 19 -10 0 -5 -9 -10 -20 -10 -11
0 -20 -7 -20 -15 0 -8 -7 -15 -16 -15 -9 0 -29 -13 -44 -30 -15 -16 -35 -30
-44 -30 -9 0 -16 -8 -16 -20 0 -11 -4 -20 -10 -20 -5 0 -10 -9 -10 -20 0 -11
-4 -20 -10 -20 -5 0 -10 -18 -10 -40 0 -22 -4 -40 -10 -40 -5 0 -10 -13 -10
-30 0 -17 -5 -30 -12 -31 -10 0 -10 -2 0 -6 7 -2 12 -22 12 -44 0 -21 5 -39
10 -39 6 0 10 -18 10 -40 0 -22 -4 -40 -10 -40 -5 0 -10 -7 -10 -15 0 -20 -44
-65 -64 -65 -8 0 -18 -9 -21 -20 -3 -11 -10 -20 -15 -20 -5 0 -31 -22 -59 -49
-35 -34 -51 -58 -51 -75 0 -14 -4 -26 -10 -26 -5 0 -10 -9 -10 -20 0 -11 -4
-20 -10 -20 -5 0 -10 -13 -10 -30 0 -16 -4 -30 -10 -30 -5 0 -10 -16 -10 -35
0 -19 -4 -35 -10 -35 -5 0 -10 -18 -10 -40 0 -22 5 -40 10 -40 6 0 10 -13 10
-30 0 -16 5 -30 10 -30 6 0 10 -34 10 -83 0 -71 3 -85 20 -97 11 -8 20 -22 20
-32 0 -11 7 -18 20 -18 11 0 20 -7 20 -15 0 -9 20 -36 45 -61 25 -24 45 -53
45 -64 0 -16 7 -20 30 -20 17 0 30 -4 30 -10 0 -5 9 -10 20 -10 11 0 20 -4 20
-9 0 -5 23 -11 50 -15 41 -5 50 -10 50 -26 0 -19 -8 -20 -244 -20 -186 0 -246
-3 -250 -12 -5 -10 -7 -10 -12 0 -7 15 -214 18 -214 2 0 -5 -9 -10 -20 -10
-11 0 -20 5 -20 10 0 15 -67 12 -74 -2 -5 -10 -7 -10 -12 0 -3 6 -23 12 -45
12 -35 0 -39 3 -39 25 0 14 -4 25 -10 25 -5 0 -10 9 -10 20 0 11 5 20 10 20 6
0 10 27 10 60 0 33 -4 60 -10 60 -5 0 -10 9 -10 20 0 11 5 20 10 20 7 0 10
190 10 549 0 430 3 551 13 555 10 5 10 7 0 12 -16 7 -18 154 -3 154 6 0 10 7
10 15 0 42 12 44 302 45 212 0 278 -3 282 -12z m1200 0 c5 -10 7 -10 12 0 4 8
28 12 69 12 41 0 65 -4 69 -12 5 -10 7 -10 12 0 7 15 144 17 144 2 0 -5 9 -10
20 -10 11 0 20 5 20 10 0 18 31 10 55 -15 23 -22 25 -32 25 -114 0 -62 -4 -91
-12 -95 -10 -5 -10 -7 0 -12 14 -7 17 -64 2 -64 -15 0 -12 -40 3 -41 10 0 10
-2 0 -6 -10 -3 -13 -47 -13 -168 0 -121 3 -165 13 -169 10 -5 10 -7 0 -12 -15
-7 -18 -84 -3 -84 6 0 10 -18 10 -40 0 -22 -4 -40 -10 -40 -6 0 -10 -65 -10
-175 0 -110 4 -175 10 -175 6 0 10 -38 10 -95 0 -57 -4 -95 -10 -95 -5 0 -10
-9 -10 -20 0 -11 5 -20 10 -20 6 0 10 -13 10 -30 0 -16 -4 -30 -10 -30 -5 0
-10 -5 -10 -11 0 -15 -26 -39 -43 -39 -9 0 -18 -6 -20 -12 -4 -10 -8 -9 -17 2
-9 11 -13 12 -17 3 -6 -16 -123 -18 -123 -3 0 6 -9 10 -20 10 -11 0 -20 -4
-20 -10 0 -5 -16 -10 -35 -10 -19 0 -35 5 -35 10 0 6 -9 10 -20 10 -11 0 -20
-4 -20 -10 0 -15 -97 -13 -103 3 -4 9 -8 8 -17 -3 -9 -11 -13 -12 -17 -2 -6
14 -53 17 -53 2 0 -16 -217 -13 -224 3 -5 10 -7 10 -12 0 -4 -9 -36 -13 -110
-13 -96 0 -104 1 -104 19 0 16 10 21 48 27 26 4 54 15 63 25 9 11 20 19 24 19
4 0 20 14 35 30 15 17 35 30 44 30 9 0 16 8 16 20 0 13 7 20 20 20 13 0 20 7
20 18 0 10 9 24 20 32 11 8 20 21 20 30 0 9 9 22 20 30 11 8 20 25 20 37 0 13
5 23 10 23 6 0 10 14 10 30 0 17 5 30 10 30 6 0 10 18 10 39 0 22 6 42 13 45
10 5 10 7 0 12 -9 4 -13 30 -13 80 0 43 -4 74 -10 74 -5 0 -10 14 -10 30 0 17
-4 30 -10 30 -5 0 -10 14 -10 30 0 17 -4 30 -10 30 -5 0 -10 8 -10 18 0 10 -9
24 -20 32 -11 8 -20 22 -20 32 0 10 -7 18 -16 18 -22 0 -44 25 -44 49 0 12 -4
21 -10 21 -5 0 -10 14 -10 30 0 17 5 30 10 30 6 0 10 33 10 80 0 47 4 80 10
80 6 0 10 11 10 25 0 14 -4 25 -10 25 -6 0 -10 29 -10 68 0 56 -3 70 -20 82
-11 8 -20 21 -20 30 0 9 -9 22 -20 30 -11 8 -20 22 -20 32 0 10 -5 18 -11 18
-6 0 -17 6 -24 13 -35 31 -45 37 -60 37 -8 0 -15 9 -15 20 0 20 7 20 279 20
214 0 281 -3 285 -12z m-3144 -38 c0 -5 8 -10 18 -10 11 0 29 -8 40 -19 20
-16 22 -29 22 -115 0 -57 4 -96 10 -96 14 0 12 -37 -2 -44 -10 -5 -10 -7 0
-12 7 -3 12 -24 12 -49 0 -25 5 -46 13 -49 10 -5 10 -7 0 -12 -10 -4 -13 -52
-13 -190 0 -116 -4 -184 -10 -184 -5 0 -10 -8 -10 -18 0 -10 -9 -24 -20 -32
-11 -8 -20 -22 -20 -31 0 -34 -104 -36 -137 -3 -16 15 -18 164 -3 164 6 0 10
14 10 30 0 17 -4 30 -10 30 -6 0 -10 32 -10 75 0 43 4 75 10 75 6 0 10 14 10
30 0 17 -4 30 -10 30 -6 0 -10 41 -10 104 0 74 -4 106 -12 110 -10 5 -10 7 0
12 14 7 16 44 2 44 -5 0 -10 25 -10 56 0 46 4 60 22 75 11 11 27 19 35 19 7 0
13 5 13 10 0 6 14 10 30 10 17 0 30 -4 30 -10z m4656 -54 c8 -8 14 -22 14 -30
0 -9 5 -16 10 -16 6 0 10 -27 10 -60 0 -33 -4 -60 -10 -60 -5 0 -10 -24 -10
-54 0 -34 -5 -57 -12 -60 -10 -5 -10 -7 0 -12 14 -7 17 -104 2 -104 -6 0 -10
-30 -10 -70 0 -40 4 -70 10 -70 15 0 12 -67 -2 -73 -10 -4 -9 -8 2 -16 13 -10
13 -12 0 -22 -11 -8 -12 -12 -2 -16 14 -6 17 -63 2 -63 -5 0 -10 -11 -10 -25
0 -33 -42 -75 -75 -75 -14 0 -25 5 -25 10 0 6 -11 10 -25 10 -18 0 -25 5 -25
20 0 11 -4 20 -10 20 -6 0 -10 52 -10 135 0 83 -4 135 -10 135 -5 0 -10 9 -10
20 0 11 5 20 10 20 6 0 10 40 10 100 0 55 4 100 8 100 5 0 12 50 15 110 6 96
10 113 29 135 27 28 100 35 124 11z m-2106 -66 c8 -11 20 -20 28 -20 7 0 20
-6 28 -14 8 -8 14 -21 14 -28 0 -8 9 -20 20 -28 11 -8 20 -22 20 -32 0 -10 5
-18 10 -18 6 0 10 -9 10 -20 0 -11 -4 -20 -10 -20 -6 0 -10 -28 -10 -65 0 -37
-4 -65 -10 -65 -6 0 -10 -42 -10 -105 0 -63 -4 -105 -10 -105 -5 0 -10 -22
-10 -50 0 -27 -4 -50 -10 -50 -5 0 -10 -11 -10 -25 0 -33 -42 -75 -75 -75 -14
0 -25 -4 -25 -10 0 -6 -27 -10 -60 -10 -33 0 -60 4 -60 10 0 6 -5 10 -10 10
-17 0 -60 47 -60 65 0 8 -4 15 -10 15 -6 0 -10 42 -10 105 0 63 -4 105 -10
105 -6 0 -10 33 -10 80 0 47 -4 80 -10 80 -5 0 -10 9 -10 20 0 11 5 20 10 20
6 0 10 9 10 20 0 11 -4 20 -10 20 -5 0 -10 7 -10 15 0 8 5 15 10 15 6 0 10 13
10 28 0 16 8 34 20 42 11 8 20 22 20 32 0 11 7 18 20 18 11 0 20 5 20 10 0 6
7 10 15 10 8 0 15 5 15 10 0 6 9 10 20 10 11 0 20 5 20 10 0 6 26 10 58 10 46
0 60 -4 72 -20z m-400 -630 c0 -40 -4 -70 -10 -70 -5 0 -10 -9 -10 -20 0 -11
-4 -20 -10 -20 -5 0 -10 -7 -10 -15 0 -8 -4 -15 -10 -15 -6 0 -10 -33 -10 -80
0 -47 4 -80 10 -80 6 0 10 -9 10 -20 0 -11 5 -20 10 -20 6 0 10 -9 10 -20 0
-11 5 -20 10 -20 6 0 10 -13 10 -30 0 -16 4 -30 10 -30 5 0 20 -11 34 -25 14
-14 37 -25 51 -25 14 0 25 -4 25 -10 0 -5 14 -10 30 -10 17 0 30 -4 30 -10 0
-6 35 -10 85 -10 50 0 85 4 85 10 0 6 7 10 15 10 9 0 31 16 51 35 19 19 39 35
44 35 6 0 10 9 10 20 0 13 7 20 20 20 13 0 20 7 20 19 0 11 6 21 12 23 9 3 14
41 17 126 1 67 7 122 12 122 5 0 9 7 9 16 0 15 23 44 34 44 3 0 6 -9 6 -20 0
-11 5 -20 10 -20 6 0 10 -9 10 -20 0 -11 5 -20 10 -20 6 0 10 -38 10 -95 0
-57 -4 -95 -10 -95 -14 0 -12 -38 3 -43 8 -3 5 -11 -10 -24 -13 -11 -23 -28
-23 -37 0 -9 -4 -16 -10 -16 -5 0 -10 -5 -10 -11 0 -7 -8 -19 -18 -28 -11 -9
-22 -28 -26 -43 -4 -18 -13 -28 -24 -28 -10 0 -24 -9 -32 -20 -8 -12 -26 -20
-42 -20 -15 0 -28 -4 -28 -10 0 -5 -9 -10 -20 -10 -11 0 -20 -4 -20 -10 0 -6
-27 -10 -60 -10 -33 0 -60 -4 -60 -10 0 -5 -11 -10 -25 -10 -14 0 -25 5 -25
10 0 6 -18 10 -40 10 -22 0 -40 5 -40 10 0 6 -13 10 -30 10 -16 0 -30 5 -30
10 0 6 -9 10 -20 10 -11 0 -20 5 -20 10 0 6 -7 10 -16 10 -20 0 -44 24 -44 44
0 9 -9 16 -20 16 -15 0 -22 9 -26 30 -4 17 -10 30 -15 30 -5 0 -9 10 -9 23 0
12 -9 29 -20 37 -14 10 -20 26 -20 52 0 21 -4 38 -10 38 -5 0 -10 14 -10 30 0
17 5 30 10 30 6 0 10 25 10 55 0 30 5 55 10 55 6 0 10 9 10 20 0 11 5 20 10
20 6 0 10 9 10 20 0 11 5 20 10 20 6 0 10 9 10 19 0 11 7 26 15 35 8 8 15 20
15 26 0 17 23 39 43 40 15 0 17 -10 17 -70z m120 -190 c0 -5 9 -10 20 -10 11
0 20 -4 20 -10 0 -5 14 -10 30 -10 17 0 30 -4 30 -10 0 -15 167 -13 174 3 5
10 7 10 12 0 3 -7 14 -13 25 -13 10 0 19 -4 19 -10 0 -5 -4 -10 -10 -10 -5 0
-10 -13 -10 -30 0 -16 -4 -30 -10 -30 -5 0 -10 -7 -10 -15 0 -20 -45 -65 -65
-65 -8 0 -15 -4 -15 -10 0 -5 -13 -10 -30 -10 -16 0 -30 -4 -30 -10 0 -5 -11
-10 -25 -10 -14 0 -25 5 -25 10 0 6 -13 10 -30 10 -16 0 -30 5 -30 10 0 6 -9
10 -20 10 -11 0 -20 5 -20 10 0 6 -9 10 -20 10 -16 0 -20 7 -20 30 0 17 -4 30
-10 30 -5 0 -10 14 -10 30 0 17 -4 30 -10 30 -14 0 -12 48 3 65 14 16 67 20
67 5z m-1800 -370 c0 -5 9 -10 20 -10 11 0 20 -4 20 -10 0 -5 16 -10 35 -10
19 0 35 -4 35 -10 0 -5 9 -10 20 -10 11 0 20 -4 20 -10 0 -5 9 -10 20 -10 11
0 20 -4 20 -10 0 -5 16 -10 36 -10 27 0 43 -7 64 -30 22 -24 36 -30 69 -30 23
0 41 -4 41 -10 0 -5 13 -10 30 -10 18 0 39 -10 54 -25 14 -14 32 -25 41 -25 8
0 15 -4 15 -10 0 -5 9 -10 20 -10 11 0 20 -4 20 -10 0 -5 13 -10 28 -10 16 0
34 -8 42 -20 8 -11 20 -20 27 -20 7 0 13 -4 13 -10 0 -5 9 -10 20 -10 11 0 20
-4 20 -10 0 -5 23 -10 50 -10 28 0 50 -4 50 -10 0 -14 37 -12 44 3 5 10 7 10
12 0 4 -10 48 -13 169 -13 121 0 165 3 169 13 5 10 7 10 12 0 3 -8 26 -13 59
-13 33 0 56 -5 59 -12 5 -10 7 -10 12 0 4 9 42 12 139 12 97 0 135 3 138 13 4
9 8 8 16 -3 10 -13 12 -13 22 0 8 11 12 12 16 3 6 -16 103 -18 103 -3 0 6 14
10 30 10 17 0 30 -4 30 -10 0 -6 38 -10 95 -10 57 0 95 4 95 10 0 14 37 12 44
-2 5 -10 7 -10 12 0 7 14 44 16 44 2 0 -5 14 -10 30 -10 17 0 30 5 30 10 0 6
7 10 15 10 8 0 15 -4 15 -10 0 -5 23 -10 50 -10 28 0 50 5 50 10 0 6 30 10 70
10 40 0 70 -4 70 -10 0 -15 87 -12 93 3 4 9 8 8 17 -3 9 -11 13 -12 17 -2 3 9
68 12 274 12 173 0 269 4 269 10 0 6 9 10 20 10 13 0 20 7 20 20 0 13 7 20 20
20 11 0 20 5 20 10 0 6 7 10 16 10 9 0 29 14 44 30 15 17 35 30 44 30 9 0 16
4 16 10 0 5 12 13 28 16 15 4 34 15 43 26 9 10 20 18 25 18 5 0 16 9 24 20 8
11 22 20 32 20 10 0 18 5 18 10 0 6 9 10 20 10 11 0 20 5 20 10 0 6 5 10 10
10 18 0 11 -55 -10 -70 -11 -8 -20 -22 -20 -32 0 -10 -4 -18 -10 -18 -5 0 -10
-6 -10 -13 0 -7 -9 -19 -20 -27 -11 -8 -20 -22 -20 -32 0 -11 -7 -18 -20 -18
-13 0 -20 -7 -20 -18 0 -27 -34 -62 -59 -62 -13 0 -39 -17 -61 -40 -21 -22
-43 -40 -50 -40 -6 0 -22 -11 -36 -25 -15 -15 -36 -25 -54 -25 -17 0 -30 -4
-30 -10 0 -15 -147 -13 -154 3 -5 10 -7 10 -12 0 -7 -16 -214 -19 -214 -3 0 6
-13 10 -30 10 -16 0 -30 -4 -30 -10 0 -16 -447 -13 -454 3 -5 10 -7 10 -12 0
-4 -10 -63 -13 -244 -13 -181 0 -240 3 -244 13 -5 10 -7 10 -12 0 -4 -10 -83
-13 -344 -13 -261 0 -340 3 -344 13 -5 10 -7 10 -12 0 -7 -16 -254 -19 -254
-3 0 6 -15 10 -32 10 -52 0 -78 11 -78 31 0 15 -7 19 -40 19 -22 0 -40 5 -40
10 0 6 -8 10 -18 10 -10 0 -24 9 -32 20 -8 12 -26 20 -42 20 -15 0 -28 5 -28
10 0 6 -9 10 -20 10 -11 0 -20 5 -20 10 0 6 -8 10 -18 10 -10 0 -24 9 -32 20
-8 11 -20 20 -27 20 -7 0 -13 5 -13 10 0 6 -8 10 -18 10 -10 0 -24 9 -32 20
-8 11 -22 20 -32 20 -10 0 -18 5 -18 10 0 6 -12 10 -26 10 -14 0 -32 7 -40 15
-10 9 -34 15 -64 15 -40 0 -50 4 -55 20 -3 11 -15 20 -26 20 -12 0 -19 7 -19
18 0 10 -9 24 -20 32 -14 10 -20 26 -20 52 0 21 5 38 10 38 6 0 10 -4 10 -10z
m-140 -70 c0 -11 5 -20 10 -20 6 0 10 -8 10 -17 0 -10 14 -29 31 -43 17 -14
41 -35 54 -47 13 -13 35 -23 47 -23 13 0 30 -9 38 -20 8 -11 25 -20 37 -20 13
0 23 -4 23 -10 0 -5 8 -10 18 -10 10 0 24 -9 32 -20 8 -11 22 -20 32 -20 10 0
18 -4 18 -10 0 -5 9 -10 20 -10 11 0 20 -4 20 -10 0 -5 14 -10 30 -10 17 0 30
-4 30 -10 0 -5 8 -10 18 -10 10 0 24 -9 32 -20 8 -11 20 -20 27 -20 7 0 13 -4
13 -10 0 -5 12 -10 26 -10 14 0 32 -7 40 -15 9 -8 29 -15 45 -15 16 0 29 -4
29 -10 0 -5 9 -10 20 -10 11 0 20 -4 20 -10 0 -5 9 -10 20 -10 11 0 20 -4 20
-10 0 -5 9 -10 20 -10 11 0 20 -4 20 -10 0 -5 7 -10 15 -10 8 0 15 -4 15 -10
0 -5 9 -10 20 -10 11 0 20 -4 20 -10 0 -5 9 -10 20 -10 11 0 20 -4 20 -10 0
-6 40 -10 99 -10 70 0 101 -4 105 -12 5 -10 7 -10 12 0 7 15 154 17 154 2 0
-15 77 -12 84 3 5 10 7 10 12 0 4 -9 38 -13 120 -13 69 0 114 -4 114 -10 0 -5
14 -10 30 -10 17 0 30 5 30 10 0 16 370 13 371 -2 0 -10 2 -10 6 0 3 7 24 12
53 12 29 0 51 -5 54 -12 5 -10 7 -10 12 0 7 14 64 17 64 2 0 -5 9 -10 20 -10
11 0 20 5 20 10 0 6 9 10 20 10 11 0 20 -4 20 -10 0 -5 20 -10 45 -10 25 0 45
5 45 10 0 6 9 10 20 10 11 0 20 5 20 10 0 6 9 10 20 10 11 0 20 -4 20 -10 0
-5 14 -10 30 -10 17 0 30 5 30 10 0 14 37 12 44 -2 5 -10 7 -10 12 0 7 15 134
17 134 2 0 -15 97 -13 103 3 4 9 8 8 16 -3 10 -13 12 -13 22 0 8 11 12 12 16
3 6 -16 113 -18 113 -3 0 6 9 10 20 10 11 0 20 -4 20 -10 0 -5 14 -10 30 -10
17 0 30 5 30 10 0 15 57 12 64 -2 5 -10 7 -10 12 0 3 7 26 12 60 12 30 0 54 5
54 10 0 6 9 10 20 10 11 0 20 5 20 10 0 6 9 10 20 10 11 0 20 5 20 10 0 6 7
10 16 10 9 0 29 14 44 30 15 17 33 30 40 30 14 0 40 25 40 39 0 6 14 11 30 11
17 0 30 5 30 10 0 6 7 10 15 10 8 0 15 5 15 10 0 6 7 10 15 10 19 0 145 124
145 143 0 7 9 19 20 27 11 8 20 24 20 35 0 11 9 27 20 35 11 8 20 22 20 32 0
15 9 18 45 18 25 0 45 -4 45 -10 0 -5 17 -10 38 -10 26 0 42 -6 52 -20 10 -14
26 -20 51 -20 21 0 44 -7 53 -15 8 -8 22 -15 30 -15 9 0 16 -4 16 -10 0 -5 7
-10 15 -10 8 0 15 -4 15 -10 0 -5 8 -10 18 -10 10 0 24 -9 32 -20 8 -12 26
-20 42 -20 21 0 28 -5 28 -19 0 -11 5 -21 12 -23 15 -5 -96 -118 -117 -118 -8
0 -15 -4 -15 -9 0 -5 -10 -13 -22 -17 -12 -4 -39 -24 -59 -45 -21 -22 -43 -39
-49 -39 -7 0 -25 -14 -40 -30 -15 -17 -34 -30 -42 -30 -7 0 -20 -9 -28 -20 -8
-11 -21 -20 -30 -20 -9 0 -22 -9 -30 -21 -30 -43 -68 -79 -84 -79 -8 0 -31
-16 -50 -35 -20 -19 -42 -35 -51 -35 -8 0 -15 -4 -15 -10 0 -5 -8 -10 -18 -10
-10 0 -24 -9 -32 -20 -8 -11 -22 -20 -32 -20 -10 0 -18 -4 -18 -10 0 -5 -7
-10 -15 -10 -8 0 -15 -4 -15 -10 0 -15 -117 -13 -124 3 -5 10 -7 10 -12 0 -7
-17 -61 -17 -68 0 -5 10 -7 10 -12 0 -3 -7 -14 -13 -24 -13 -10 0 -21 -6 -23
-12 -4 -10 -8 -9 -17 2 -9 11 -13 12 -17 3 -6 -15 -33 -17 -33 -3 0 16 -347
13 -354 -2 -5 -10 -7 -10 -12 0 -7 15 -184 17 -184 2 0 -5 -7 -10 -15 -10 -8
0 -15 5 -15 10 0 6 -22 10 -50 10 -27 0 -50 -4 -50 -10 0 -5 -9 -10 -20 -10
-11 0 -20 5 -20 10 0 15 -137 13 -144 -2 -5 -10 -7 -10 -12 0 -7 15 -114 17
-114 2 0 -14 -37 -12 -44 3 -5 10 -7 10 -12 0 -3 -7 -18 -13 -34 -13 -16 0
-31 6 -34 13 -5 10 -7 10 -12 0 -4 -9 -32 -13 -90 -13 -49 0 -84 -4 -84 -10 0
-5 -13 -10 -30 -10 -16 0 -30 5 -30 10 0 6 -30 10 -70 10 -40 0 -70 -4 -70
-10 0 -6 -32 -10 -75 -10 -43 0 -75 4 -75 10 0 6 -9 10 -20 10 -11 0 -20 -4
-20 -10 0 -15 -120 -13 -121 3 0 10 -2 10 -6 0 -2 -7 -17 -13 -33 -13 -16 0
-31 6 -34 13 -5 10 -7 10 -12 0 -4 -10 -42 -13 -140 -13 -83 0 -134 -4 -134
-10 0 -5 -13 -10 -30 -10 -16 0 -30 5 -30 10 0 6 -42 10 -105 10 -63 0 -105
-4 -105 -10 0 -5 -22 -10 -50 -10 -27 0 -50 5 -50 10 0 6 -13 10 -30 10 -16 0
-30 -4 -30 -10 0 -5 -22 -10 -48 -10 -36 0 -51 5 -62 20 -8 11 -19 20 -25 20
-6 0 -17 9 -25 20 -8 11 -22 20 -32 20 -10 0 -18 5 -18 10 0 6 -9 10 -20 10
-11 0 -20 5 -20 10 0 6 -8 10 -18 10 -10 0 -24 9 -32 20 -8 11 -21 20 -30 20
-9 0 -22 9 -30 20 -8 11 -22 20 -32 20 -10 0 -18 4 -18 9 0 5 -15 13 -32 17
-18 3 -40 15 -49 25 -9 11 -28 19 -43 19 -14 0 -26 5 -26 10 0 6 -8 10 -18 10
-10 0 -24 9 -32 20 -8 11 -21 20 -30 20 -9 0 -22 9 -30 20 -8 11 -22 20 -32
20 -10 0 -18 5 -18 10 0 6 -7 10 -15 10 -8 0 -15 5 -15 10 0 6 -8 10 -18 10
-10 0 -24 9 -32 20 -8 12 -26 20 -42 20 -15 0 -28 5 -28 10 0 6 -7 10 -16 10
-9 0 -24 8 -33 18 -9 11 -28 22 -43 26 -16 3 -28 11 -28 16 0 6 -9 10 -20 10
-11 0 -20 5 -20 10 0 6 -6 10 -13 10 -7 0 -19 9 -27 20 -8 11 -22 20 -32 20
-10 0 -18 5 -18 10 0 6 -7 10 -16 10 -8 0 -22 7 -30 15 -13 13 -11 19 20 50
19 19 42 35 51 35 8 0 15 5 15 10 0 6 10 10 23 10 12 0 29 9 37 20 8 11 25 20
38 20 13 0 30 6 37 13 37 32 46 37 70 37 14 0 25 5 25 10 0 6 13 10 28 10 16
0 34 8 42 20 8 11 25 20 37 20 13 0 23 5 23 10 0 6 9 10 20 10 11 0 20 5 20
10 0 6 9 10 20 10 13 0 20 -7 20 -20z m-600 -380 c0 -5 23 -12 50 -16 28 -4
50 -10 50 -15 0 -5 8 -9 18 -9 10 0 24 -9 32 -20 8 -11 22 -20 32 -20 10 0 18
-4 18 -10 0 -5 7 -10 15 -10 8 0 15 -4 15 -10 0 -5 9 -10 20 -10 11 0 20 -4
20 -10 0 -5 7 -10 16 -10 9 0 29 -13 44 -30 15 -16 35 -30 44 -30 9 0 16 -4
16 -10 0 -5 9 -10 20 -10 11 0 20 -4 20 -10 0 -5 7 -10 16 -10 9 0 29 -13 44
-30 15 -16 37 -30 48 -30 11 0 27 -7 36 -15 8 -8 22 -15 30 -15 9 0 16 -4 16
-10 0 -5 12 -10 26 -10 17 0 39 -14 64 -40 21 -22 46 -40 54 -40 9 0 16 -4 16
-10 0 -5 7 -10 15 -10 8 0 15 -4 15 -10 0 -5 13 -10 28 -10 16 0 34 -8 42 -20
8 -11 22 -20 32 -20 10 0 18 -4 18 -10 0 -5 9 -10 20 -10 11 0 20 -4 20 -10 0
-5 9 -10 20 -10 11 0 20 -4 20 -10 0 -5 9 -10 20 -10 11 0 20 -4 20 -9 0 -5 9
-13 20 -16 11 -3 20 -15 20 -25 0 -10 5 -20 11 -22 16 -5 14 -591 -1 -596 -13
-5 -13 -102 0 -102 15 0 13 -117 -2 -123 -10 -4 -9 -8 2 -16 10 -7 11 -11 3
-11 -7 0 -13 -9 -13 -20 0 -11 5 -20 10 -20 15 0 12 -70 -4 -86 -17 -16 -46
-19 -46 -4 0 6 -9 10 -20 10 -11 0 -20 5 -20 10 0 6 -8 10 -18 10 -10 0 -24 9
-32 20 -8 11 -22 20 -32 20 -10 0 -18 5 -18 10 0 6 -7 10 -15 10 -9 0 -27 11
-41 25 -14 14 -30 25 -35 25 -6 0 -28 18 -49 40 -21 22 -46 40 -54 40 -9 0
-16 5 -16 10 0 6 -8 10 -18 10 -10 0 -24 9 -32 20 -8 11 -22 20 -32 20 -10 0
-18 7 -18 16 0 19 -24 44 -42 44 -8 0 -20 9 -28 20 -8 11 -20 20 -27 20 -7 0
-13 5 -13 10 0 6 -13 10 -30 10 -16 0 -30 5 -30 10 0 6 -7 10 -15 10 -16 0
-28 8 -70 48 -13 12 -31 22 -40 22 -8 0 -15 5 -15 10 0 6 -8 10 -18 10 -10 0
-24 9 -32 20 -8 11 -20 20 -27 20 -7 0 -13 5 -13 10 0 6 -8 10 -18 10 -10 0
-24 9 -32 20 -8 11 -21 20 -30 20 -9 0 -22 9 -30 20 -8 12 -26 20 -42 20 -21
0 -28 5 -28 20 0 11 -7 20 -15 20 -9 0 -27 11 -40 25 -22 21 -25 33 -25 94 0
46 -4 71 -12 75 -10 5 -10 7 0 12 9 4 12 88 12 370 l0 364 30 0 c17 0 30 -4
30 -10z m5006 -34 c17 -18 18 -42 2 -50 -10 -5 -10 -7 0 -12 15 -7 18 -254 2
-254 -14 0 -12 -37 3 -43 9 -4 8 -8 -3 -17 -11 -9 -12 -13 -2 -17 14 -6 17
-83 2 -83 -14 0 -12 -37 3 -43 9 -4 8 -8 -3 -17 -12 -9 -13 -12 -1 -17 11 -5
11 -7 0 -15 -11 -7 -11 -11 -1 -15 9 -3 12 -40 12 -133 0 -120 -1 -129 -20
-135 -11 -3 -20 -15 -20 -26 0 -12 -7 -19 -20 -19 -11 0 -20 -7 -20 -15 0 -8
-37 -53 -82 -100 -46 -46 -93 -96 -106 -110 -12 -14 -30 -25 -38 -25 -8 0 -37
-22 -64 -50 -27 -27 -56 -50 -64 -50 -9 0 -16 -4 -16 -10 0 -5 -9 -10 -20 -10
-13 0 -20 -7 -20 -18 0 -10 -9 -24 -20 -32 -11 -8 -20 -22 -20 -32 0 -10 -7
-18 -15 -18 -8 0 -15 -9 -15 -20 0 -11 -7 -20 -15 -20 -9 0 -27 -10 -40 -22
-14 -13 -36 -33 -50 -46 -28 -26 -41 -27 -61 -8 -17 17 -21 256 -4 256 6 0 10
83 10 230 0 147 -4 230 -10 230 -5 0 -10 23 -10 50 0 28 5 50 10 50 6 0 10 18
10 40 0 22 -4 40 -10 40 -5 0 -10 7 -10 15 0 8 5 15 10 15 6 0 10 7 10 15 0
18 64 85 80 85 6 0 33 23 60 50 27 28 52 50 55 50 4 0 20 14 35 30 15 17 33
30 40 30 6 0 18 6 25 13 34 30 45 37 56 37 6 0 24 14 39 30 15 17 34 30 42 30
7 0 20 9 28 21 30 43 68 79 84 79 9 0 16 5 16 10 0 6 8 10 18 10 9 1 33 19 52
40 38 42 54 48 76 26z m-837 -574 c4 -7 6 -238 3 -514 -3 -401 -6 -504 -17
-515 -10 -9 -49 -13 -149 -13 -84 0 -136 -4 -136 -10 0 -14 -47 -12 -54 3 -5
10 -7 10 -12 0 -7 -15 -44 -17 -44 -3 0 6 -22 10 -50 10 -27 0 -50 -4 -50 -10
0 -15 -77 -12 -84 3 -5 10 -7 10 -12 0 -7 -16 -174 -18 -174 -3 0 6 -9 10 -20
10 -11 0 -20 -4 -20 -10 0 -6 -100 -10 -280 -10 -180 0 -280 -4 -280 -10 0 -6
-27 -10 -60 -10 -33 0 -60 4 -60 10 0 6 -16 10 -35 10 -19 0 -35 -4 -35 -10 0
-6 -30 -10 -70 -10 -40 0 -70 4 -70 10 0 6 -45 10 -115 10 -70 0 -115 -4 -115
-10 0 -5 -9 -10 -20 -10 -11 0 -20 5 -20 10 0 15 -97 13 -103 -2 -4 -10 -8 -9
-17 2 -9 11 -13 12 -17 3 -6 -17 -50 -17 -56 0 -4 9 -8 8 -17 -3 -9 -11 -13
-12 -17 -2 -6 16 -60 16 -66 0 -4 -10 -8 -9 -17 2 -9 11 -13 12 -17 3 -6 -17
-60 -17 -67 0 -5 10 -7 10 -12 0 -4 -10 -61 -13 -234 -13 -173 0 -230 -3 -234
-12 -5 -10 -7 -10 -12 0 -3 6 -23 12 -45 12 -36 0 -39 2 -39 29 0 16 -6 32
-12 35 -10 5 -10 7 0 12 14 7 17 84 2 84 -6 0 -10 35 -10 85 0 50 4 85 10 85
15 0 13 117 -2 124 -10 5 -10 7 0 12 8 4 12 32 12 89 0 57 -4 85 -12 89 -10 5
-10 7 0 12 9 4 12 52 12 190 0 175 1 184 19 184 11 0 22 6 25 13 5 10 7 10 12
0 7 -15 64 -18 64 -3 0 6 32 10 75 10 43 0 75 4 75 10 0 6 14 10 30 10 17 0
30 -4 30 -10 0 -5 9 -10 20 -10 11 0 20 5 20 10 0 15 117 13 123 -2 4 -10 8
-9 16 2 7 10 11 11 11 3 0 -8 13 -13 30 -13 17 0 30 5 30 10 0 6 62 10 165 10
103 0 165 -4 165 -10 0 -5 23 -10 50 -10 28 0 50 5 50 10 0 6 14 10 30 10 17
0 30 -4 30 -10 0 -5 11 -10 25 -10 14 0 25 5 25 10 0 15 57 12 64 -2 5 -10 7
-10 12 0 4 9 58 12 219 12 161 0 215 3 219 13 5 10 7 10 12 0 3 -7 18 -13 34
-13 16 0 31 6 34 13 5 10 7 10 12 0 3 -8 24 -13 49 -13 25 0 45 5 48 13 4 9 8
8 16 -3 8 -11 13 -12 19 -3 9 14 188 18 760 18 253 0 324 -3 331 -13z"/>
<path d="M11180 10899 c-201 -154 -368 -284 -372 -288 -4 -3 46 -76 112 -161
66 -85 134 -175 152 -198 18 -24 51 -53 73 -63 22 -11 58 -31 80 -44 96 -59
268 -13 433 116 51 40 98 82 104 93 6 12 18 30 28 41 26 31 61 134 67 201 9
100 -26 213 -87 279 -15 17 -69 89 -120 160 -51 72 -95 133 -99 137 -4 4 -171
-119 -371 -273z m482 -184 c15 -36 18 -61 13 -95 -13 -87 -37 -123 -126 -190
-125 -92 -176 -114 -258 -107 -53 4 -69 9 -81 27 -8 13 -38 46 -66 76 -28 29
-61 65 -72 81 l-21 29 241 191 241 191 55 -77 c31 -42 64 -98 74 -126z"/>
<path d="M2189 10689 c-35 -44 -63 -85 -61 -91 3 -12 499 -817 512 -831 5 -6
65 61 117 133 9 13 1 33 -47 110 -32 52 -55 99 -51 105 15 20 184 240 191 248
3 4 53 -9 110 -28 57 -19 107 -32 111 -28 21 21 118 157 115 160 -3 3 -589
194 -917 298 -10 4 -36 -21 -80 -76z m353 -211 c101 -36 147 -57 143 -65 -2
-7 -32 -47 -67 -88 l-62 -74 -39 62 c-112 176 -137 217 -130 217 4 0 74 -24
155 -52z"/>
<path d="M3324 10344 c16 -59 136 -647 134 -650 -11 -10 -410 -261 -476 -298
-46 -27 -82 -50 -80 -52 7 -6 204 -34 428 -60 129 -14 236 -27 237 -28 2 -2
30 -135 63 -297 52 -255 100 -452 114 -466 2 -2 18 40 36 94 18 54 82 221 142
370 l110 273 317 -6 316 -5 -221 218 -221 218 154 334 c84 183 152 335 151
337 -3 2 -398 -221 -623 -351 l-41 -23 -144 115 c-151 119 -365 283 -389 298
-11 6 -12 2 -7 -21z m370 -438 c73 -58 138 -112 145 -120 10 -12 21 -9 74 23
134 81 297 170 297 162 0 -12 -127 -288 -150 -328 l-19 -32 123 -118 123 -119
-171 4 -172 4 -13 -28 c-8 -16 -45 -105 -82 -199 -38 -93 -68 -167 -69 -164 0
10 -68 342 -75 371 -8 32 -10 33 -206 54 -88 10 -159 20 -159 23 0 3 64 46
143 95 78 49 143 91 145 92 2 1 -14 88 -36 193 -22 105 -37 191 -35 191 3 0
64 -47 137 -104z"/>
<path d="M11760 10085 c-227 -136 -394 -241 -392 -248 7 -24 345 -606 351
-603 3 1 34 20 68 41 l62 37 -19 37 c-10 20 -66 121 -124 225 l-105 190 101
57 102 58 113 -197 c62 -108 119 -196 125 -194 7 2 38 20 70 39 l58 36 -47 86
c-26 47 -75 138 -110 201 l-62 114 86 47 87 47 119 -214 120 -214 71 40 c39
22 70 45 68 52 -3 11 -329 576 -341 590 -4 4 -184 -98 -401 -227z"/>
<path d="M1804 9949 c-104 -54 -151 -115 -259 -335 -53 -108 -93 -200 -88
-204 4 -4 191 -100 415 -214 l406 -206 108 207 107 208 1 125 1 125 -37 55
c-64 96 -170 184 -286 235 -77 33 -86 35 -195 35 -108 0 -117 -2 -173 -31z
m247 -173 c35 -14 89 -38 120 -55 78 -43 169 -155 169 -208 0 -19 -50 -143
-90 -225 l-23 -46 -271 135 c-149 74 -272 137 -274 138 -7 6 38 82 82 140 25
33 46 65 46 72 0 28 89 69 156 72 12 1 50 -10 85 -23z"/>
<path d="M1311 9043 c-17 -53 -29 -99 -27 -100 6 -7 870 -303 873 -299 6 6 63
179 60 183 -4 3 -868 313 -873 313 -2 0 -17 -44 -33 -97z"/>
<path d="M12366 8865 c-241 -69 -440 -126 -443 -128 -3 -4 36 -187 40 -187 1
0 86 22 189 49 l187 49 12 -35 c14 -45 6 -137 -16 -166 -57 -78 -80 -106 -167
-199 l-97 -105 29 -107 c16 -60 31 -110 33 -113 6 -6 224 237 247 275 10 16
29 50 43 76 l25 47 22 -35 c58 -95 161 -140 266 -118 126 26 203 114 211 240
5 68 4 71 -118 545 -5 20 -13 37 -17 36 -4 0 -204 -56 -446 -124z m369 -227
c35 -156 38 -186 26 -217 -18 -41 -64 -64 -114 -57 -42 7 -42 7 -75 89 -36 89
-74 228 -66 237 7 6 198 58 202 55 2 -2 14 -50 27 -107z"/>
<path d="M1295 8586 c-102 -49 -147 -101 -186 -211 -41 -118 -38 -207 8 -308
27 -57 39 -70 84 -96 73 -41 178 -52 240 -23 56 25 116 88 167 177 22 39 50
82 61 96 11 14 26 39 32 55 28 65 64 84 125 68 11 -3 31 -25 44 -48 19 -36 22
-53 17 -98 -6 -59 -42 -141 -75 -171 -15 -14 -38 -19 -81 -20 l-60 -2 -11 -65
c-6 -36 -13 -79 -16 -96 -6 -31 -5 -32 41 -38 57 -9 95 -1 166 34 101 52 157
134 189 278 30 133 27 194 -14 277 -39 81 -62 105 -131 137 -110 49 -252 15
-337 -81 -22 -25 -65 -95 -95 -155 -30 -59 -66 -119 -80 -132 -32 -29 -72 -31
-101 -4 -30 29 -31 126 -2 179 23 40 85 81 124 81 22 0 25 5 31 53 3 28 8 70
11 93 5 37 3 42 -18 47 -42 12 -63 7 -133 -27z"/>
<path d="M12514 7890 c-129 -18 -240 -104 -305 -235 -51 -103 -61 -186 -35
-309 35 -168 124 -281 263 -332 129 -46 248 -43 405 11 171 58 289 226 288
410 -1 184 -95 352 -238 428 -49 27 -63 29 -185 32 -73 2 -160 0 -193 -5z
m308 -220 c121 -46 160 -152 118 -322 -14 -59 -54 -94 -149 -131 -125 -49
-283 -34 -380 37 -60 44 -75 82 -76 196 0 70 2 78 35 123 63 89 167 130 310
123 55 -2 105 -11 142 -26z"/>
<path d="M1785 7640 c-66 -45 -131 -88 -145 -97 -14 -9 -50 -42 -81 -74 l-57
-59 -6 38 c-3 21 -24 63 -45 94 -45 63 -102 93 -193 104 -72 8 -141 -21 -202
-86 -68 -73 -77 -111 -88 -413 -6 -142 -8 -260 -7 -262 2 -1 214 -6 472 -10
l467 -7 0 101 0 101 -195 0 -195 0 0 28 c0 56 26 129 56 155 16 15 100 73 187
128 l157 102 0 118 c0 66 -1 119 -2 119 -2 0 -57 -36 -123 -80z m-466 -226
l31 -26 0 -154 0 -154 -107 0 -106 0 7 156 c6 151 7 156 33 180 37 34 100 33
142 -2z"/>
<path d="M12420 6839 c-30 -5 -68 -14 -83 -20 -38 -16 -123 -113 -152 -176
-51 -106 -40 -274 25 -403 38 -75 100 -115 197 -126 101 -10 145 1 204 51 70
60 102 110 138 220 44 133 66 180 92 199 28 19 58 20 79 3 30 -24 53 -168 30
-182 -5 -3 -10 -15 -10 -26 0 -15 -15 -27 -57 -46 -32 -14 -59 -26 -59 -27 -1
-1 -5 -43 -9 -93 l-7 -93 43 0 c104 1 182 57 236 168 35 71 37 83 37 167 0 72
-5 105 -26 164 -30 83 -69 123 -147 153 -75 29 -135 24 -216 -20 -80 -44 -100
-72 -161 -232 -19 -52 -41 -108 -47 -124 -44 -117 -153 -114 -192 5 -21 63
-15 120 20 190 28 54 67 79 125 79 l30 0 0 90 c0 101 8 95 -90 79z"/>
<path d="M1786 6699 c-32 -5 -61 -10 -62 -12 -2 -2 12 -116 30 -253 19 -137
33 -250 32 -251 -5 -6 -229 -33 -234 -29 -2 3 -17 104 -33 227 -16 122 -30
224 -32 226 -4 4 -149 -15 -154 -21 -2 -1 8 -103 21 -227 14 -123 24 -225 22
-226 -4 -4 -180 -23 -183 -19 -2 2 -17 111 -34 242 -16 131 -31 240 -33 242
-4 4 -158 -16 -163 -21 -4 -4 85 -679 90 -684 4 -4 909 105 914 111 2 1 -15
159 -37 350 -22 191 -40 349 -40 352 0 5 -32 3 -104 -7z"/>
<path d="M12140 6057 c0 -2 -13 -48 -30 -103 -16 -54 -26 -101 -22 -105 4 -3
43 -30 87 -59 44 -29 81 -54 82 -54 1 -1 -19 -74 -46 -161 l-47 -160 -105 -9
c-57 -5 -105 -10 -106 -11 -5 -4 -62 -199 -59 -202 1 -2 220 13 487 32 266 19
487 35 490 35 11 0 80 203 72 211 -11 9 -774 573 -790 582 -7 5 -13 6 -13 4z
m403 -529 l132 -93 -95 -6 c-52 -4 -127 -7 -166 -8 l-72 -1 26 100 c15 55 30
100 35 100 4 0 67 -42 140 -92z"/>
<path d="M1090 5643 c1 -13 48 -194 52 -198 2 -2 158 -8 347 -14 190 -6 346
-13 348 -15 2 -2 -125 -92 -282 -201 -157 -109 -285 -201 -285 -204 1 -12 48
-193 52 -196 3 -4 787 543 811 564 6 6 -55 197 -67 208 -2 2 -940 63 -968 63
-4 0 -8 -3 -8 -7z"/>
<path d="M11815 4978 c-20 -46 -39 -88 -41 -94 -3 -6 28 -26 68 -44 40 -19
119 -55 176 -81 l103 -48 -25 -49 c-14 -28 -43 -63 -65 -79 -36 -26 -56 -31
-208 -52 -92 -12 -182 -25 -200 -28 -29 -4 -34 -12 -77 -111 -25 -58 -44 -107
-42 -109 14 -14 452 73 479 96 10 7 11 -7 9 -63 -5 -84 11 -123 75 -192 96
-103 280 -95 375 16 30 34 263 509 254 517 -3 3 -838 403 -841 403 -1 0 -19
-37 -40 -82z m644 -434 c6 -5 -108 -237 -127 -257 -9 -11 -30 -26 -46 -34 -27
-14 -32 -13 -70 8 -52 29 -56 34 -56 88 0 32 13 73 43 140 24 53 49 108 55
124 l12 27 92 -46 c51 -25 95 -48 97 -50z"/>
<path d="M1846 4809 c-225 -110 -411 -201 -413 -203 -3 -3 64 -166 71 -173 2
-3 836 383 843 390 5 5 -79 187 -86 186 -3 0 -190 -90 -415 -200z"/>
<path d="M2005 4434 c-233 -136 -399 -239 -397 -247 7 -23 94 -157 101 -153
26 14 461 273 480 285 19 12 -13 -57 -137 -299 l-161 -315 45 -83 c25 -45 48
-81 52 -79 4 2 183 109 399 237 l392 232 -40 79 c-37 75 -41 79 -62 68 -19
-10 -446 -252 -471 -267 -5 -2 61 132 147 299 l156 304 -47 82 c-26 45 -50 84
-53 87 -3 3 -185 -100 -404 -230z"/>
<path d="M11395 4167 c-21 -34 -45 -71 -52 -83 -13 -20 3 -31 374 -261 214
-132 393 -243 400 -246 13 -8 117 154 105 164 -6 5 -745 463 -778 482 -7 4
-27 -19 -49 -56z"/>
<path d="M11178 3763 c-66 -24 -90 -40 -163 -108 -75 -69 -92 -92 -127 -165
-46 -98 -58 -177 -38 -261 39 -162 134 -272 321 -369 81 -42 84 -43 189 -44
103 -1 108 0 182 37 163 80 268 245 268 421 0 46 -6 103 -13 127 -18 59 -101
183 -140 211 -18 12 -53 41 -80 64 -61 54 -182 105 -262 111 -48 3 -76 -2
-137 -24z m164 -187 c57 -17 168 -95 212 -149 49 -61 86 -140 86 -184 -1 -90
-53 -169 -140 -213 -95 -48 -121 -48 -219 0 -149 72 -252 203 -251 318 1 82
53 168 123 204 80 41 119 46 189 24z"/>
<path d="M2744 3711 c-61 -33 -102 -66 -363 -292 l-200 -172 29 -36 c16 -20
47 -55 67 -79 l38 -43 221 193 c282 247 298 259 342 265 31 3 46 -2 91 -34 30
-21 63 -50 73 -64 26 -35 33 -96 16 -145 -14 -44 -51 -80 -346 -343 l-161
-144 29 -36 c16 -20 44 -53 62 -74 l33 -38 180 156 c219 191 265 233 333 308
67 74 74 94 75 188 1 73 -1 80 -42 147 -115 190 -221 271 -356 271 -58 1 -79
-4 -121 -28z"/>
</g>
</svg>
